<svg id="svg" version="1.1" xmlns="http://www.w3.org/2000/svg" xmlns:xlink="http://www.w3.org/1999/xlink" width="400" height="400" viewBox="0, 0, 400,400"><g id="svgg"><path id="path0" d="M28.400 28.553 C 28.400 29.103,28.580 29.664,28.800 29.800 C 29.026 29.940,29.200 29.612,29.200 29.047 C 29.200 28.497,29.020 27.936,28.800 27.800 C 28.574 27.660,28.400 27.988,28.400 28.553 M371.100 27.829 C 370.935 27.996,370.800 28.589,370.800 29.147 C 370.800 29.875,370.922 30.038,371.234 29.726 C 371.472 29.488,371.607 28.894,371.534 28.408 C 371.460 27.922,371.265 27.661,371.100 27.829 M323.676 150.029 C 320.777 150.405,314.699 152.083,312.972 152.984 C 312.327 153.320,311.579 153.596,311.309 153.598 C 310.117 153.604,299.920 159.906,297.522 162.118 C 296.996 162.603,295.404 163.966,293.983 165.147 C 290.028 168.436,285.910 172.391,269.200 188.956 C 229.691 228.121,221.643 235.836,217.477 238.532 C 212.522 241.739,212.538 241.734,208.845 241.728 C 204.446 241.720,206.148 242.456,176.499 227.741 C 163.023 221.054,150.513 214.945,148.699 214.167 C 146.884 213.389,145.040 212.592,144.600 212.396 C 144.160 212.201,142.630 211.743,141.200 211.379 C 139.770 211.015,137.880 210.523,137.000 210.284 C 133.430 209.318,120.229 209.706,115.400 210.918 C 109.737 212.341,110.843 211.852,89.400 222.412 C 79.280 227.396,70.319 231.795,69.486 232.189 C 67.080 233.326,67.189 230.927,67.298 280.277 L 67.400 326.200 68.366 326.093 C 68.941 326.029,70.724 324.651,72.766 322.691 C 79.952 315.795,93.652 305.931,102.800 301.069 C 104.230 300.308,106.480 299.081,107.800 298.341 C 110.872 296.618,113.250 295.473,122.000 291.498 C 123.430 290.849,126.310 289.683,128.400 288.907 C 130.490 288.132,133.370 287.062,134.800 286.530 C 140.655 284.353,151.580 281.390,159.000 279.966 C 171.721 277.526,177.223 276.858,189.700 276.240 C 204.683 275.499,221.184 276.393,233.800 278.631 C 243.282 280.313,247.748 281.277,252.200 282.603 C 253.300 282.930,256.090 283.732,258.400 284.385 C 260.710 285.038,263.770 286.005,265.200 286.534 C 275.973 290.524,275.308 290.253,283.000 293.780 C 287.268 295.737,289.750 296.967,292.200 298.341 C 293.520 299.081,295.770 300.308,297.200 301.069 C 306.348 305.931,320.048 315.795,327.234 322.691 C 329.276 324.651,331.059 326.029,331.634 326.093 L 332.600 326.200 332.701 238.442 C 332.775 173.906,332.683 150.541,332.352 150.142 C 331.846 149.533,327.897 149.481,323.676 150.029 " stroke="none" fill="#11a383" fill-rule="evenodd"></path><path id="path1" d="M67.900 64.432 C 67.243 64.815,67.200 66.687,67.200 94.762 L 67.200 124.684 71.100 124.922 C 78.726 125.388,87.380 129.748,93.785 136.353 C 95.989 138.626,96.306 138.708,98.600 137.600 C 104.793 134.609,113.976 139.306,115.048 146.013 C 115.329 147.767,116.384 148.800,117.894 148.800 C 121.199 148.800,128.482 152.015,131.339 154.735 C 145.154 167.890,140.890 189.531,123.200 196.043 L 120.600 197.000 93.900 197.000 L 67.200 197.000 67.200 214.900 C 67.200 229.823,67.291 232.800,67.750 232.800 C 68.053 232.800,70.258 231.835,72.650 230.655 C 75.043 229.475,83.750 225.177,92.000 221.103 C 109.675 212.376,109.729 212.352,115.400 210.923 C 121.077 209.491,133.479 209.290,138.000 210.555 C 139.430 210.955,141.320 211.447,142.200 211.648 C 143.080 211.850,144.160 212.180,144.600 212.383 C 145.040 212.586,146.884 213.389,148.699 214.167 C 150.513 214.945,163.023 221.054,176.499 227.741 C 206.148 242.456,204.446 241.720,208.845 241.728 C 215.908 241.739,216.298 241.398,269.200 188.956 C 285.910 172.391,290.028 168.436,293.983 165.147 C 295.404 163.966,296.996 162.603,297.522 162.118 C 299.825 159.993,310.114 153.600,311.231 153.600 C 311.458 153.600,312.424 153.245,313.378 152.810 C 316.357 151.453,322.554 150.053,326.864 149.764 C 331.275 149.468,332.800 149.105,332.800 148.350 C 332.800 147.707,324.763 148.211,322.600 148.989 C 321.720 149.306,320.370 149.581,319.600 149.600 C 318.830 149.619,317.480 149.907,316.600 150.240 C 315.720 150.573,314.460 151.013,313.800 151.219 C 313.140 151.424,312.060 151.847,311.400 152.157 C 310.740 152.468,309.750 152.920,309.200 153.161 C 304.585 155.184,297.180 160.454,290.628 166.379 C 289.009 167.843,267.707 188.819,263.304 193.285 C 252.970 203.768,253.053 203.714,250.278 201.637 C 235.149 190.317,231.649 167.036,242.797 151.878 C 246.756 146.495,252.932 141.611,258.504 139.458 C 263.773 137.421,265.406 137.054,270.220 136.827 L 275.040 136.600 278.820 132.795 C 282.029 129.564,283.194 128.688,286.537 126.995 L 290.474 125.000 296.137 125.014 C 299.252 125.022,302.565 125.105,303.500 125.199 C 305.071 125.357,305.344 125.232,307.100 123.547 C 314.281 116.659,326.115 111.395,331.675 112.617 L 332.800 112.864 332.800 88.846 C 332.800 65.510,332.778 64.816,332.026 64.414 C 330.954 63.840,68.885 63.858,67.900 64.432 M209.266 82.616 C 210.261 82.955,211.819 83.970,212.729 84.870 C 214.299 86.425,214.469 86.493,216.091 86.220 C 217.031 86.062,218.373 85.839,219.074 85.725 C 222.513 85.167,227.973 88.905,228.562 92.222 C 229.072 95.090,229.120 95.142,232.001 96.000 C 236.712 97.403,239.070 100.887,238.624 105.784 C 238.194 110.513,238.188 110.484,239.906 112.321 C 243.329 115.981,243.262 121.301,239.745 125.262 C 238.347 126.836,237.996 127.496,238.209 128.151 C 240.113 134.016,237.770 138.906,232.006 141.097 L 229.013 142.235 228.682 144.206 C 227.837 149.247,220.963 153.153,216.760 150.979 C 215.311 150.230,214.204 150.517,213.316 151.871 C 210.582 156.045,203.727 156.383,199.712 152.543 C 197.476 150.404,197.360 150.347,196.200 150.828 C 190.854 153.044,184.224 149.500,183.271 143.917 C 182.973 142.170,182.804 142.023,179.943 141.019 C 174.597 139.142,171.541 132.990,173.802 128.655 C 174.388 127.532,174.363 127.471,172.409 125.334 C 168.579 121.143,168.866 114.072,172.977 111.378 C 174.173 110.595,174.436 109.580,173.761 108.361 C 171.418 104.134,175.002 97.240,180.200 95.972 C 182.680 95.367,183.200 94.973,183.200 93.695 C 183.200 88.577,190.268 84.319,195.625 86.209 L 197.351 86.818 199.076 85.125 C 202.007 82.249,205.595 81.365,209.266 82.616 " stroke="none" fill="#addaf7" fill-rule="evenodd"></path><path id="path2" d="M28.830 26.964 C 28.509 27.350,28.494 27.611,28.781 27.788 C 29.072 27.968,29.200 79.836,29.200 197.847 C 29.200 310.945,29.334 367.565,29.600 367.400 C 29.820 367.264,30.000 367.328,30.000 367.543 C 30.000 367.758,29.775 368.024,29.500 368.135 C 29.115 368.290,29.121 368.344,29.524 368.368 C 29.812 368.386,29.933 368.625,29.794 368.900 C 29.655 369.175,29.824 369.051,30.170 368.624 C 30.733 367.930,30.984 368.033,30.847 368.900 C 30.821 369.065,31.070 369.200,31.400 369.200 C 31.730 369.200,32.000 369.020,32.000 368.800 C 32.000 368.580,31.820 368.400,31.600 368.400 C 30.808 368.400,31.222 367.572,32.200 367.200 C 32.750 366.991,33.205 366.590,33.212 366.310 C 33.218 366.029,40.745 358.287,49.939 349.105 L 66.654 332.410 66.345 329.905 C 66.174 328.527,66.029 268.000,66.022 195.400 L 66.008 63.400 48.604 46.027 C 39.032 36.472,31.200 28.520,31.200 28.355 C 31.200 28.190,30.795 27.998,30.300 27.928 C 29.730 27.847,29.420 27.543,29.456 27.100 C 29.523 26.253,29.436 26.234,28.830 26.964 M370.542 27.086 C 370.579 27.544,370.278 27.845,369.700 27.928 C 369.205 27.998,368.800 28.190,368.800 28.355 C 368.800 28.520,360.968 36.472,351.395 46.027 L 333.990 63.400 333.979 195.400 C 333.973 268.000,333.828 328.527,333.657 329.905 L 333.346 332.410 350.061 349.105 C 359.255 358.287,366.782 366.029,366.788 366.310 C 366.795 366.590,367.250 366.991,367.800 367.200 C 368.778 367.572,369.192 368.400,368.400 368.400 C 368.180 368.400,368.000 368.580,368.000 368.800 C 368.000 369.020,368.270 369.200,368.600 369.200 C 368.930 369.200,369.179 369.065,369.153 368.900 C 369.016 368.033,369.267 367.930,369.830 368.624 C 370.176 369.051,370.355 369.190,370.227 368.934 C 370.099 368.678,370.221 368.377,370.498 368.266 C 370.897 368.105,370.897 368.057,370.500 368.032 C 370.225 368.014,370.000 367.809,370.000 367.576 C 370.000 367.343,370.180 367.264,370.400 367.400 C 370.666 367.565,370.800 310.964,370.800 197.904 C 370.800 80.674,370.929 28.031,371.217 27.743 C 371.506 27.454,371.458 27.180,371.059 26.849 C 370.594 26.463,370.495 26.509,370.542 27.086 M203.023 83.865 C 202.596 83.988,201.314 85.058,200.175 86.244 C 198.030 88.476,197.148 88.789,195.824 87.787 C 194.371 86.689,190.319 87.012,188.278 88.389 C 185.934 89.971,185.819 90.141,184.827 93.494 C 183.882 96.685,183.335 97.200,180.890 97.200 C 177.113 97.200,173.517 103.176,174.926 107.109 C 175.963 110.002,175.819 110.789,173.962 112.389 C 170.142 115.681,170.108 122.504,173.901 124.859 C 175.611 125.920,175.894 127.223,174.991 129.879 C 173.522 134.200,176.356 138.809,181.053 139.737 C 183.622 140.245,184.425 141.211,185.004 144.488 C 185.745 148.688,189.865 150.504,196.255 149.448 C 198.480 149.081,198.815 149.255,200.600 151.705 C 202.691 154.576,209.300 154.136,212.244 150.930 L 213.979 149.040 216.945 149.539 C 218.577 149.813,220.427 149.924,221.056 149.786 C 222.832 149.396,224.400 148.736,224.400 148.378 C 224.400 148.200,224.729 147.950,225.131 147.822 C 225.948 147.563,227.388 144.573,227.771 142.340 C 228.092 140.469,228.493 140.167,231.370 139.638 C 232.719 139.389,234.044 138.874,234.447 138.442 C 234.837 138.024,235.300 137.618,235.478 137.541 C 237.078 136.842,238.167 130.983,236.987 129.424 C 235.955 128.058,236.262 126.604,237.885 125.179 C 242.182 121.406,242.189 115.722,237.900 112.272 C 236.246 110.942,235.795 108.600,237.000 107.600 C 239.790 105.285,235.003 97.200,230.842 97.200 C 228.771 97.200,227.600 96.135,227.600 94.250 C 227.600 92.302,225.854 89.412,224.205 88.629 C 223.451 88.271,222.726 87.803,222.593 87.589 C 222.187 86.932,216.973 87.110,216.400 87.800 C 215.513 88.869,213.798 88.536,212.798 87.100 C 210.806 84.237,206.588 82.842,203.023 83.865 M212.345 92.403 C 231.665 96.892,239.573 120.736,226.800 135.989 C 225.275 137.809,220.180 142.000,219.491 142.000 C 219.255 142.000,218.779 142.240,218.431 142.534 C 213.704 146.528,201.219 146.443,193.168 142.362 C 177.151 134.243,174.151 110.255,187.726 98.833 C 188.365 98.295,189.093 97.660,189.344 97.422 C 191.095 95.761,195.097 93.579,197.600 92.920 C 198.810 92.602,200.340 92.193,201.000 92.012 C 203.279 91.385,208.784 91.575,212.345 92.403 M116.100 367.900 C 162.245 367.956,237.755 367.956,283.900 367.900 C 330.045 367.844,292.290 367.798,200.000 367.798 C 107.710 367.798,69.955 367.844,116.100 367.900 " stroke="none" fill="#ce8535" fill-rule="evenodd"></path><path id="path3" d="M332.129 148.987 C 331.281 149.433,331.278 149.457,332.030 149.926 C 332.789 150.400,332.800 151.870,332.701 238.304 L 332.600 326.200 331.634 326.093 C 331.059 326.029,329.276 324.651,327.234 322.691 C 320.048 315.795,306.348 305.931,297.200 301.069 C 295.770 300.308,293.520 299.081,292.200 298.341 C 289.128 296.618,286.750 295.473,278.000 291.498 C 276.570 290.849,273.690 289.683,271.600 288.907 C 269.510 288.132,266.630 287.064,265.200 286.534 C 263.770 286.005,260.710 285.038,258.400 284.385 C 256.090 283.732,253.300 282.930,252.200 282.603 C 247.748 281.277,243.282 280.313,233.800 278.631 C 221.184 276.393,204.683 275.499,189.700 276.240 C 177.223 276.858,171.721 277.526,159.000 279.966 C 151.580 281.390,140.655 284.353,134.800 286.530 C 133.370 287.062,130.490 288.132,128.400 288.907 C 126.310 289.683,123.430 290.849,122.000 291.498 C 113.250 295.473,110.872 296.618,107.800 298.341 C 106.480 299.081,104.230 300.308,102.800 301.069 C 93.652 305.931,79.952 315.795,72.766 322.691 C 70.724 324.651,68.941 326.029,68.366 326.093 L 67.400 326.200 67.298 280.277 C 67.229 249.076,67.330 234.105,67.612 233.577 C 67.898 233.042,67.899 232.800,67.614 232.800 C 67.386 232.800,67.200 232.500,67.200 232.133 C 67.200 231.767,67.106 231.561,66.991 231.676 C 66.336 232.331,66.818 329.011,67.478 329.500 C 68.015 329.898,95.149 330.000,200.000 330.000 C 304.872 330.000,331.977 329.898,332.484 329.500 C 333.128 328.994,333.879 148.975,333.237 148.649 C 333.107 148.583,332.608 148.735,332.129 148.987 " stroke="none" fill="#93c34b" fill-rule="evenodd"></path><path id="path4" d="M326.400 113.024 C 319.705 114.268,312.912 117.971,307.100 123.547 C 305.344 125.232,305.071 125.357,303.500 125.199 C 302.565 125.105,299.252 125.022,296.137 125.014 L 290.474 125.000 286.537 126.995 C 283.194 128.688,282.029 129.564,278.820 132.795 L 275.040 136.600 270.220 136.827 C 259.441 137.336,249.465 142.811,242.797 151.878 C 234.080 163.732,234.211 183.119,243.084 194.341 C 247.000 199.294,251.778 203.401,253.078 202.930 C 253.689 202.709,258.317 198.344,263.304 193.285 C 267.707 188.819,289.009 167.843,290.628 166.379 C 297.180 160.454,304.585 155.184,309.200 153.161 C 309.750 152.920,310.740 152.468,311.400 152.157 C 312.060 151.847,313.140 151.424,313.800 151.219 C 314.460 151.013,315.720 150.573,316.600 150.240 C 317.480 149.907,318.830 149.619,319.600 149.600 C 320.370 149.581,321.720 149.306,322.600 148.989 C 323.480 148.672,326.135 148.293,328.500 148.146 L 332.800 147.880 332.863 131.240 C 332.927 114.441,332.911 113.178,332.624 112.891 C 332.194 112.460,329.078 112.527,326.400 113.024 M67.298 160.842 L 67.400 197.000 94.000 197.000 L 120.600 197.000 123.200 196.043 C 140.890 189.531,145.154 167.890,131.339 154.735 C 128.482 152.015,121.199 148.800,117.894 148.800 C 116.384 148.800,115.329 147.767,115.048 146.013 C 113.976 139.306,104.793 134.609,98.600 137.600 C 96.306 138.708,95.989 138.626,93.785 136.353 C 87.380 129.748,78.727 125.388,71.098 124.922 L 67.196 124.683 67.298 160.842 " stroke="none" fill="#faf8f6" fill-rule="evenodd"></path><path id="path5" d="M201.000 92.012 C 200.340 92.193,198.810 92.602,197.600 92.920 C 195.097 93.579,191.095 95.761,189.344 97.422 C 189.093 97.660,188.365 98.295,187.726 98.833 C 174.151 110.255,177.151 134.243,193.168 142.362 C 201.219 146.443,213.704 146.528,218.431 142.534 C 218.779 142.240,219.255 142.000,219.491 142.000 C 219.726 142.000,221.152 141.024,222.659 139.830 C 238.450 127.330,235.776 103.163,217.600 94.103 C 213.547 92.082,204.768 90.976,201.000 92.012 M28.700 363.831 C 28.535 363.997,28.400 364.499,28.400 364.947 C 28.400 365.535,28.521 365.639,28.838 365.322 C 29.078 365.082,29.213 364.580,29.138 364.207 C 29.062 363.833,28.865 363.664,28.700 363.831 M370.800 364.353 C 370.800 364.793,370.980 365.264,371.200 365.400 C 371.420 365.536,371.600 365.287,371.600 364.847 C 371.600 364.407,371.420 363.936,371.200 363.800 C 370.980 363.664,370.800 363.913,370.800 364.353 M28.400 366.753 C 28.400 367.193,28.580 367.664,28.800 367.800 C 29.020 367.936,29.200 367.687,29.200 367.247 C 29.200 366.807,29.020 366.336,28.800 366.200 C 28.580 366.064,28.400 366.313,28.400 366.753 M371.100 366.231 C 370.935 366.397,370.800 366.899,370.800 367.347 C 370.800 367.935,370.921 368.039,371.238 367.722 C 371.478 367.482,371.613 366.980,371.538 366.607 C 371.462 366.233,371.265 366.064,371.100 366.231 " stroke="none" fill="#f1c43c" fill-rule="evenodd"></path><path id="path6" d="M29.355 26.900 C 29.385 27.511,29.689 27.841,30.300 27.928 C 30.795 27.998,31.200 28.191,31.200 28.356 C 31.200 28.522,39.030 36.467,48.600 46.014 L 66.000 63.371 66.005 146.985 C 66.011 227.075,66.071 233.161,66.849 231.934 C 67.035 231.640,67.191 193.921,67.194 148.114 C 67.200 66.184,67.213 64.821,67.974 64.414 C 69.201 63.757,331.233 63.842,332.125 64.500 C 332.754 64.964,332.810 68.038,332.901 106.767 C 332.979 139.754,333.105 148.568,333.500 148.700 C 333.898 148.833,334.000 140.139,334.000 106.119 L 334.000 63.371 351.400 46.014 C 360.970 36.467,368.800 28.522,368.800 28.356 C 368.800 28.191,369.205 27.998,369.700 27.928 C 370.311 27.841,370.615 27.511,370.645 26.900 L 370.691 26.000 200.000 26.000 L 29.309 26.000 29.355 26.900 M202.500 82.758 C 201.565 83.129,200.024 84.195,199.076 85.125 L 197.351 86.818 195.625 86.209 C 190.268 84.319,183.200 88.577,183.200 93.695 C 183.200 94.973,182.680 95.367,180.200 95.972 C 175.002 97.240,171.418 104.134,173.761 108.361 C 174.436 109.580,174.173 110.595,172.977 111.378 C 168.866 114.072,168.579 121.143,172.409 125.334 C 174.363 127.471,174.388 127.532,173.802 128.655 C 171.541 132.990,174.597 139.142,179.943 141.019 C 182.804 142.023,182.973 142.170,183.271 143.917 C 184.224 149.500,190.854 153.044,196.200 150.828 C 197.360 150.347,197.476 150.404,199.712 152.543 C 203.727 156.383,210.582 156.045,213.316 151.871 C 214.204 150.517,215.311 150.230,216.760 150.979 C 220.963 153.153,227.837 149.247,228.682 144.206 L 229.013 142.235 232.006 141.097 C 237.770 138.906,240.113 134.016,238.209 128.151 C 237.996 127.496,238.347 126.836,239.745 125.262 C 243.262 121.301,243.329 115.981,239.906 112.321 C 238.188 110.484,238.194 110.513,238.624 105.784 C 239.070 100.887,236.712 97.403,232.001 96.000 C 229.120 95.142,229.072 95.090,228.562 92.222 C 227.973 88.905,222.513 85.167,219.074 85.725 C 218.373 85.839,217.031 86.062,216.091 86.220 C 214.469 86.493,214.299 86.425,212.729 84.870 C 209.970 82.139,206.081 81.336,202.500 82.758 M210.746 84.869 C 211.377 85.381,212.301 86.385,212.798 87.100 C 213.798 88.536,215.513 88.869,216.400 87.800 C 216.973 87.110,222.187 86.932,222.593 87.589 C 222.726 87.803,223.451 88.271,224.205 88.629 C 225.854 89.412,227.600 92.302,227.600 94.250 C 227.600 96.135,228.771 97.200,230.842 97.200 C 235.003 97.200,239.790 105.285,237.000 107.600 C 235.795 108.600,236.246 110.942,237.900 112.272 C 242.189 115.722,242.182 121.406,237.885 125.179 C 236.262 126.604,235.955 128.058,236.987 129.424 C 238.167 130.983,237.078 136.842,235.478 137.541 C 235.300 137.618,234.837 138.024,234.447 138.442 C 234.044 138.874,232.719 139.389,231.370 139.638 C 228.493 140.167,228.092 140.469,227.771 142.340 C 227.388 144.573,225.948 147.563,225.131 147.822 C 224.729 147.950,224.400 148.200,224.400 148.378 C 224.400 148.736,222.832 149.396,221.056 149.786 C 220.427 149.924,218.577 149.813,216.945 149.539 L 213.979 149.040 212.244 150.930 C 209.300 154.136,202.691 154.576,200.600 151.705 C 198.815 149.255,198.480 149.081,196.255 149.448 C 189.865 150.504,185.745 148.688,185.004 144.488 C 184.425 141.211,183.622 140.245,181.053 139.737 C 176.356 138.809,173.522 134.200,174.991 129.879 C 175.894 127.223,175.611 125.920,173.901 124.859 C 172.372 123.910,170.585 119.843,170.920 118.076 C 171.379 115.658,172.414 113.723,173.962 112.389 C 175.819 110.789,175.963 110.002,174.926 107.109 C 173.517 103.176,177.113 97.200,180.890 97.200 C 183.335 97.200,183.882 96.685,184.827 93.494 C 185.819 90.141,185.934 89.971,188.278 88.389 C 190.319 87.012,194.371 86.689,195.824 87.787 C 197.148 88.789,198.030 88.476,200.175 86.244 C 202.612 83.708,202.907 83.597,206.699 83.790 C 208.998 83.908,209.837 84.131,210.746 84.869 " stroke="none" fill="#f4ac63" fill-rule="evenodd"></path><path id="path7" d="M333.500 176.166 C 333.335 191.107,333.200 231.646,333.200 266.252 C 333.200 328.050,333.186 329.179,332.426 329.586 C 331.343 330.165,68.657 330.165,67.574 329.586 C 66.815 329.180,66.800 328.219,66.800 281.186 C 66.800 249.462,66.664 233.200,66.400 233.200 C 65.934 233.200,65.892 326.392,66.356 330.110 L 66.644 332.420 49.934 349.110 C 40.743 358.289,33.218 366.029,33.212 366.310 C 33.205 366.590,32.750 366.991,32.200 367.200 C 31.650 367.409,31.200 367.775,31.200 368.014 C 31.200 368.252,31.020 368.336,30.800 368.200 C 30.580 368.064,30.400 368.255,30.400 368.625 C 30.400 369.206,30.491 369.223,31.065 368.749 C 31.584 368.321,31.767 368.310,31.898 368.700 C 32.146 369.436,367.854 369.436,368.102 368.700 C 368.233 368.310,368.416 368.321,368.935 368.749 C 369.509 369.223,369.600 369.206,369.600 368.625 C 369.600 368.255,369.420 368.064,369.200 368.200 C 368.980 368.336,368.800 368.252,368.800 368.014 C 368.800 367.775,368.350 367.409,367.800 367.200 C 367.250 366.991,366.795 366.590,366.788 366.310 C 366.782 366.029,359.254 358.287,350.060 349.104 L 333.344 332.408 333.673 329.653 C 333.854 328.137,333.956 286.871,333.901 237.949 C 333.823 169.477,333.731 155.254,333.500 176.166 M283.900 367.900 C 237.755 367.956,162.245 367.956,116.100 367.900 C 69.955 367.844,107.710 367.798,200.000 367.798 C 292.290 367.798,330.045 367.844,283.900 367.900 " stroke="none" fill="#ab8635" fill-rule="evenodd"></path></g></svg>