<?xml version="1.0" encoding="UTF-8"?>
<svg version="1.1" xmlns="http://www.w3.org/2000/svg" width="160" height="160">
<path d="M0 0 C52.8 0 105.6 0 160 0 C160 52.8 160 105.6 160 160 C107.2 160 54.4 160 0 160 C0 107.2 0 54.4 0 0 Z " fill="#C48C25" transform="translate(0,0)"/>
<path d="M0 0 C17.82803777 -0.02333619 35.65607159 -0.04098273 53.48412132 -0.05181217 C61.76155482 -0.05697359 70.03897884 -0.06401338 78.31640625 -0.07543945 C85.52904028 -0.08539097 92.74166745 -0.09185455 99.95430815 -0.09408849 C103.77511356 -0.0953948 107.59589933 -0.09847564 111.41669846 -0.10573006 C115.01006861 -0.11249764 118.60341096 -0.11461545 122.19678688 -0.11310768 C124.15018187 -0.11351566 126.10357381 -0.11890703 128.05696106 -0.12442017 C129.21244949 -0.1230455 130.36793793 -0.12167084 131.55844116 -0.12025452 C132.56688269 -0.12117631 133.57532421 -0.1220981 134.61432457 -0.12304783 C137 0 137 0 139 1 C138.09251232 4.9929458 137.47643087 6.64785544 134.125 9.125 C133.09375 9.74375 132.0625 10.3625 131 11 C127.73850217 13.82075488 127.08372146 14.66511416 126 19 C89.7 19 53.4 19 16 19 C16 39.13 16 59.26 16 80 C19.96 80 23.92 80 28 80 C31.875 80.69140625 31.875 80.69140625 35 81.5625 C40.52938691 83.08714713 42.82988917 83.14680653 47.8828125 80.4765625 C48.95273437 79.86554688 50.02265625 79.25453125 51.125 78.625 C55.91726714 75.989522 60.3749544 73.99566328 65.68359375 72.703125 C68.12732391 72.06659925 68.12732391 72.06659925 70.52734375 70.4609375 C75.65289061 68.3046332 80.61647094 68.46735857 86.125 68.375 C88.27352595 68.32390545 90.42197331 68.26935958 92.5703125 68.2109375 C93.51664551 68.19337402 94.46297852 68.17581055 95.43798828 68.15771484 C97.77447304 68.01388321 99.7531727 67.61768965 102 67 C103.84950869 66.83236251 105.70600366 66.73446862 107.5625 66.6875 C108.51253906 66.65011719 109.46257812 66.61273438 110.44140625 66.57421875 C114 67 114 67 125 71 C125 89.15 125 107.3 125 126 C70.055 126.495 70.055 126.495 14 127 C13.99742188 118.97300781 13.99484375 110.94601563 13.9921875 102.67578125 C13.97724232 97.5943431 13.96054174 92.51303273 13.9375 87.43164062 C13.90108446 79.36392825 13.87032581 71.29656439 13.87988281 63.22875977 C13.88755543 56.72520355 13.86405856 50.22219485 13.82144547 43.71877098 C13.81029277 41.23607017 13.80963341 38.75329959 13.81957626 36.27059364 C13.83170968 32.79592015 13.80673556 29.32336481 13.77294922 25.84887695 C13.79128059 24.30491745 13.79128059 24.30491745 13.8099823 22.72976685 C13.84441935 17.66320457 13.84441935 17.66320457 11.64801407 13.29183006 C9.84871392 11.75822741 9.84871392 11.75822741 7 10 C6.67 9.34 6.34 8.68 6 8 C5.01 8 4.02 8 3 8 C2.87625 7.360625 2.7525 6.72125 2.625 6.0625 C2.315625 5.0415625 2.315625 5.0415625 2 4 C1.34 3.67 0.68 3.34 0 3 C0 2.01 0 1.02 0 0 Z " fill="#71D237" transform="translate(10,9)"/>
<path d="M0 0 C35.97 0 71.94 0 109 0 C109 17.16 109 34.32 109 52 C103 51 103 51 100.50390625 49.94921875 C97.50826188 48.81358446 95.1323456 48.76807105 91.9375 48.8125 C90.91527344 48.81894531 89.89304687 48.82539062 88.83984375 48.83203125 C86.13999825 48.89472596 86.13999825 48.89472596 84.1574707 49.49951172 C81.60608576 50.0913799 79.25946638 50.14436781 76.640625 50.17578125 C75.60679688 50.19962891 74.57296875 50.22347656 73.5078125 50.24804688 C71.35175798 50.29070263 69.19544918 50.32212181 67.0390625 50.34179688 C61.12064799 50.49967021 56.79585216 51.07039303 51.64550781 54.05297852 C49.58555286 55.23852232 47.55686456 55.77668571 45.25 56.3125 C40.93263669 57.4761385 37.78324191 59.34804999 34.0625 61.8125 C29.95038553 64.29646762 27.57644564 65.51528913 22.8125 64.5625 C20.894375 64.046875 18.97625 63.53125 17 63 C11.39 62.34 5.78 61.68 0 61 C0 40.87 0 20.74 0 0 Z " fill="#BBDEE5" transform="translate(26,28)"/>
<path d="M0 0 C52.8 0 105.6 0 160 0 C160 52.8 160 105.6 160 160 C107.2 160 54.4 160 0 160 C0 107.2 0 54.4 0 0 Z M7 6 C6.7115358 40.17782027 6.7115358 40.17782027 6.43188477 74.35571289 C6.3729248 81.04382324 6.3729248 81.04382324 6.34410095 84.19847107 C6.32518034 86.34994795 6.30779343 88.50143872 6.29173279 90.65293884 C6.18986274 104.12274423 5.88510385 117.55533922 5.22593689 131.00999451 C4.66829231 141.01256237 4.66829231 141.01256237 5 151 C5.66 151.66 6.32 152.32 7 153 C7.70767612 152.350704 8.41535223 151.701408 9.14447308 151.03243637 C12.37504621 148.73305888 13.78685732 148.4956444 17.68843079 148.48101807 C18.82280075 148.46710526 19.95717072 148.45319244 21.12591553 148.43885803 C22.36093811 148.4438884 23.59596069 148.44891876 24.8684082 148.45410156 C26.17611679 148.44376389 27.48382538 148.43342621 28.8311615 148.42277527 C32.4093481 148.39493692 35.98718891 148.39151008 39.56546807 148.39249516 C43.30781802 148.38936415 47.05001265 148.36374209 50.7922821 148.34051514 C57.875307 148.29996583 64.95823986 148.27961699 72.04136294 148.26654124 C80.1067042 148.25066753 88.17188892 148.21225039 96.23713934 148.17194796 C112.82471454 148.08956369 129.41225672 148.03546245 146 148 C146 147.34 146 146.68 146 146 C146.66 146 147.32 146 148 146 C148.00358253 144.96824788 148.00358253 144.96824788 148.00723743 143.91565228 C148.06633478 127.1907086 148.1418508 110.46592827 148.23571491 93.74114513 C148.28070936 85.6532083 148.3201155 77.56531586 148.34643555 69.47729492 C148.36938619 62.42900675 148.4027511 55.38085863 148.44870156 48.33268148 C148.47267363 44.599581 148.49137617 40.86661957 148.49761391 37.13344383 C148.50476679 32.96921324 148.53516664 28.80546761 148.56762695 24.64135742 C148.56619186 23.39914429 148.56475677 22.15693115 148.5632782 20.8770752 C148.57581635 19.74545456 148.58835449 18.61383392 148.60127258 17.44792175 C148.60588155 16.46252505 148.61049051 15.47712835 148.61523914 14.46187115 C149.06744179 11.56847741 149.89796136 10.9195279 152 9 C152 8.01 152 7.02 152 6 C104.15 6 56.3 6 7 6 Z " fill="#E4B82D" transform="translate(0,0)"/>
<path d="M0 0 C17.82803777 -0.02333619 35.65607159 -0.04098273 53.48412132 -0.05181217 C61.76155482 -0.05697359 70.03897884 -0.06401338 78.31640625 -0.07543945 C85.52904028 -0.08539097 92.74166745 -0.09185455 99.95430815 -0.09408849 C103.77511356 -0.0953948 107.59589933 -0.09847564 111.41669846 -0.10573006 C115.01006861 -0.11249764 118.60341096 -0.11461545 122.19678688 -0.11310768 C124.15018187 -0.11351566 126.10357381 -0.11890703 128.05696106 -0.12442017 C129.21244949 -0.1230455 130.36793793 -0.12167084 131.55844116 -0.12025452 C132.56688269 -0.12117631 133.57532421 -0.1220981 134.61432457 -0.12304783 C137 0 137 0 139 1 C138.09251232 4.9929458 137.47643087 6.64785544 134.125 9.125 C133.09375 9.74375 132.0625 10.3625 131 11 C127.73850217 13.82075488 127.08372146 14.66511416 126 19 C89.7 19 53.4 19 16 19 C16.165 28.095625 16.33 37.19125 16.5 46.5625 C16.96245317 73.37754701 17.12717921 100.18083859 17 127 C16.01 127 15.02 127 14 127 C14.00037703 126.42739095 14.00075405 125.85478189 14.0011425 125.26482105 C14.00826227 111.3264015 13.98195894 97.38838928 13.9197216 83.4501009 C13.89023517 76.70957158 13.871898 69.96935744 13.87988281 63.22875977 C13.88755543 56.72520355 13.86405856 50.22219485 13.82144547 43.71877098 C13.81029277 41.23607017 13.80963341 38.75329959 13.81957626 36.27059364 C13.83170968 32.79592015 13.80673556 29.32336481 13.77294922 25.84887695 C13.79128059 24.30491745 13.79128059 24.30491745 13.8099823 22.72976685 C13.84441935 17.66320457 13.84441935 17.66320457 11.64801407 13.29183006 C9.84871392 11.75822741 9.84871392 11.75822741 7 10 C6.67 9.34 6.34 8.68 6 8 C5.01 8 4.02 8 3 8 C2.87625 7.360625 2.7525 6.72125 2.625 6.0625 C2.315625 5.0415625 2.315625 5.0415625 2 4 C1.34 3.67 0.68 3.34 0 3 C0 2.01 0 1.02 0 0 Z " fill="#634E0B" transform="translate(10,9)"/>
<path d="M0 0 C0 41.91 0 83.82 0 127 C-42.24 127 -84.48 127 -128 127 C-125.53924532 120.8481133 -125.53924532 120.8481133 -123 119 C-120.86888695 118.61803246 -120.86888695 118.61803246 -118.35604858 118.60800171 C-117.40257034 118.59690872 -116.4490921 118.58581573 -115.46672058 118.5743866 C-113.90030571 118.5788958 -113.90030571 118.5788958 -112.30224609 118.58349609 C-111.20126083 118.57491074 -110.10027557 118.56632538 -108.96592712 118.55747986 C-105.31836628 118.53233827 -101.67107719 118.52803405 -98.0234375 118.5234375 C-95.49662436 118.5091365 -92.96981906 118.49338113 -90.44302368 118.47622681 C-84.4660984 118.43858655 -78.48925621 118.41348017 -72.5122515 118.39510214 C-61.16628014 118.35972079 -49.8204586 118.29605786 -38.47462845 118.23024368 C-34.73808068 118.21107673 -31.00156495 118.19940134 -27.26498413 118.18881226 C-24.98964365 118.17860582 -22.71430384 118.16824839 -20.43896484 118.15771484 C-19.3906398 118.15667252 -18.34231476 118.15563019 -17.26222229 118.15455627 C-16.3143837 118.14910294 -15.3665451 118.1436496 -14.38998413 118.13803101 C-13.56150152 118.13547491 -12.73301891 118.13291882 -11.87943077 118.13028526 C-9.98688663 118.20572444 -9.98688663 118.20572444 -9 117 C-8.90312966 115.5564633 -8.87535382 114.10822134 -8.87542725 112.66143799 C-8.87286423 111.72490387 -8.87030121 110.78836975 -8.86766052 109.82345581 C-8.86976028 108.7876236 -8.87186005 107.75179138 -8.87402344 106.68457031 C-8.8721553 105.60005585 -8.87028717 104.51554138 -8.86836243 103.39816284 C-8.86434737 101.03382862 -8.86228258 98.66949049 -8.86190033 96.30515289 C-8.85849905 91.28534024 -8.83715379 86.2656588 -8.81666946 81.24589157 C-8.77856933 71.88850841 -8.74683463 62.53129243 -8.74951172 53.17382812 C-8.75127088 46.67566309 -8.72698492 40.17787935 -8.6876297 33.67983246 C-8.67714584 31.1999195 -8.67566308 28.7199518 -8.68328094 26.24002838 C-8.69287395 22.77049602 -8.67177149 19.30240952 -8.64355469 15.83300781 C-8.65375137 14.80527252 -8.66394806 13.77753723 -8.67445374 12.71865845 C-8.60526492 7.98114979 -8.53386201 5.72091522 -5.64727783 1.82293701 C-3 0 -3 0 0 0 Z " fill="#F9ED47" transform="translate(145,18)"/>
<path d="M0 0 C51.15 0 102.3 0 155 0 C155 22.11 155 44.22 155 67 C153.68 67 152.36 67 151 67 C151.185625 67.94875 151.37125 68.8975 151.5625 69.875 C152 73 152 73 151 75 C150.93908539 76.68251609 150.93982936 78.36748288 150.97265625 80.05078125 C150.98490234 81.05947266 150.99714844 82.06816406 151.00976562 83.10742188 C151.04473024 85.23249325 151.08374773 87.35750207 151.12695312 89.48242188 C151.13791016 90.49498047 151.14886719 91.50753906 151.16015625 92.55078125 C151.18541382 93.93777222 151.18541382 93.93777222 151.21118164 95.3527832 C150.98085838 98.23994524 150.20139957 100.37943794 149 103 C148.34 102.67 147.68 102.34 147 102 C146.93049975 89.96069669 146.87718849 77.92144108 146.84456348 65.88197803 C146.82890538 60.29160795 146.80766424 54.70137509 146.77368164 49.11108398 C146.74109369 43.71647988 146.72314807 38.32200779 146.71536827 32.92731285 C146.70982378 30.86881113 146.6989968 28.81031666 146.68280983 26.75187111 C146.66104327 23.86933381 146.65803278 20.98734255 146.65942383 18.10473633 C146.648638 17.25309402 146.63785217 16.40145172 146.6267395 15.52400208 C146.63086349 14.73461243 146.63498749 13.94522278 146.63923645 13.13191223 C146.63647107 12.45070722 146.63370569 11.7695022 146.63085651 11.06765461 C147 9 147 9 150 4 C102.15 4 54.3 4 5 4 C5 13.24 5 22.48 5 32 C4.01 32.99 3.02 33.98 2 35 C1.53207034 36.947838 1.53207034 36.947838 1.56762695 39.10424805 C1.54783279 39.92487228 1.52803864 40.74549652 1.50764465 41.59098816 C1.50125473 42.47232925 1.49486481 43.35367035 1.48828125 44.26171875 C1.47033005 45.16751175 1.45237885 46.07330475 1.43388367 47.00654602 C1.37969341 49.90014996 1.34585714 52.79358815 1.3125 55.6875 C1.27933461 57.64911165 1.24484568 59.61070141 1.20898438 61.57226562 C1.12396194 66.38139097 1.0571924 71.19046641 1 76 C0.67 76 0.34 76 0 76 C0 50.92 0 25.84 0 0 Z " fill="#F1CB37" transform="translate(2,2)"/>
<path d="M0 0 C47.85 0 95.7 0 145 0 C144.67 1.32 144.34 2.64 144 4 C143.34 4.33 142.68 4.66 142 5 C141.01 4.505 141.01 4.505 140 4 C138.18843801 3.89470462 136.37302353 3.85339229 134.55844116 3.84178162 C133.40295273 3.8319928 132.24746429 3.82220398 131.05696106 3.81211853 C129.78310043 3.80636307 128.50923981 3.8006076 127.19677734 3.79467773 C125.84674274 3.78510131 124.49671115 3.77509137 123.14668274 3.76467896 C119.4754499 3.73759821 115.80420416 3.71660585 112.13292646 3.69667697 C108.29852404 3.67483693 104.46416152 3.64743856 100.62979126 3.62062073 C93.36606478 3.57066699 86.10231619 3.52573813 78.8385464 3.48259836 C70.57019089 3.43324888 62.30187541 3.37832228 54.03355861 3.32291877 C37.02240938 3.20905757 20.01122303 3.10222756 3 3 C3 3.99 3 4.98 3 6 C3.66 6 4.32 6 5 6 C5 50.55 5 95.1 5 141 C49.22 141 93.44 141 139 141 C139 141.33 139 141.66 139 142 C138.31493063 142.00146656 137.62986126 142.00293312 136.92403221 142.00444412 C120.24807988 142.04150981 103.57236393 142.10052119 86.89658165 142.18390274 C78.8322555 142.22369745 70.768027 142.25608771 62.70361328 142.27099609 C55.67394591 142.28401042 48.64449335 142.31096931 41.61494696 142.35461307 C37.89344593 142.37723306 34.17220988 142.39291038 30.450634 142.39188385 C26.29409673 142.39099879 22.13834116 142.42124806 17.98193359 142.45410156 C16.75050629 142.4490712 15.51907898 142.44404083 14.25033569 142.43885803 C7.90571123 142.51657934 3.81320525 142.67665887 -1 147 C-4.23887737 140.52224527 -2.0052962 129.58379726 -1.64942837 122.35387516 C-0.97869999 108.68521871 -0.78573518 95.03062864 -0.68359375 81.34765625 C-0.66511457 79.24637538 -0.64627443 77.14509766 -0.6270752 75.04382324 C-0.55954384 67.38341919 -0.49891037 59.72295557 -0.4375 52.0625 C-0.293125 34.881875 -0.14875 17.70125 0 0 Z " fill="#E0A72D" transform="translate(7,6)"/>
<path d="M0 0 C40.59 0 81.18 0 123 0 C121.68 1.65 120.36 3.3 119 5 C118.67 6.32 118.34 7.64 118 9 C81.7 9 45.4 9 8 9 C8.165 18.095625 8.33 27.19125 8.5 36.5625 C8.96245317 63.37754701 9.12717921 90.18083859 9 117 C8.01 117 7.02 117 6 117 C5.99945523 116.42739095 5.99891047 115.85478189 5.99834919 115.26482105 C5.98337627 101.32641398 5.9405928 87.38833063 5.86790943 73.4501009 C5.83326874 66.70961711 5.80790516 59.96933763 5.80444336 53.22875977 C5.80107718 46.72523939 5.77177575 40.22213699 5.72656822 33.71877098 C5.71356608 31.23607563 5.70929508 28.75331887 5.71384621 26.27059364 C5.71873254 22.79612183 5.6927441 19.32316297 5.65942383 15.84887695 C5.66804947 14.81957062 5.67667511 13.79026428 5.68556213 12.72976685 C5.67027466 11.78050827 5.65498718 10.83124969 5.63923645 9.85322571 C5.63647107 9.03190816 5.63370569 8.21059061 5.63085651 7.36438465 C4.98457593 4.14971706 4.98457593 4.14971706 0 0 Z " fill="#905D14" transform="translate(18,19)"/>
<path d="M0 0 C1.32 0.66 2.64 1.32 4 2 C4 2.66 4 3.32 4 4 C4.85271484 3.93039063 4.85271484 3.93039063 5.72265625 3.859375 C11.78852783 3.57582842 15.0551019 4.43967337 20 8 C20.495 8.721875 20.99 9.44375 21.5 10.1875 C23.80046808 12.96723226 26.54206322 12.55989895 30 13 C31.96838018 15.95257027 32.39061574 17.60485915 33 21 C33.495 21.99 33.495 21.99 34 23 C33.01 23.66 32.02 24.32 31 25 C30.48867194 27.71917499 30.48867194 27.71917499 30.4375 30.8125 C30.26555451 35.00692788 29.76155969 38.17267553 28 42 C28.99 42.495 28.99 42.495 30 43 C20.41407372 44.5215756 13.57514829 43.08381177 4.9453125 38.70703125 C2.83192282 37.71087663 2.83192282 37.71087663 0 39 C-1 38 -1 38 -1.1875 35.5625 C-1 33 -1 33 1 31 C-2.82180842 26.5991297 -5.47371099 25.19194469 -11 24 C-11 23.34 -11 22.68 -11 22 C-9.35 21.34 -7.7 20.68 -6 20 C-6 19.01 -6 18.02 -6 17 C-7.32 16.67 -8.64 16.34 -10 16 C-10 15.01 -10 14.02 -10 13 C-8.35 13 -6.7 13 -5 13 C-5 9.89448334 -5.5393715 8.64738916 -7 6 C-4.69 6.33 -2.38 6.66 0 7 C0 6.34 0 5.68 0 5 C0 3.33333333 0 1.66666667 0 0 Z " fill="#D3DAE2" transform="translate(38,30)"/>
<path d="M0 0 C52.8 0 105.6 0 160 0 C159.67 0.99 159.34 1.98 159 3 C81.285 2.505 81.285 2.505 2 2 C2.33 13.55 2.66 25.1 3 37 C3.66 36.01 4.32 35.02 5 34 C5.66 34 6.32 34 7 34 C7.06950112 43.57928222 7.12281176 53.15847768 7.15543652 62.737957 C7.17109453 67.18607232 7.19233521 71.63401519 7.22631836 76.08203125 C7.25890708 80.37437893 7.27685199 84.66656068 7.28463173 88.95902252 C7.29017613 90.59690208 7.30100298 92.23477253 7.31719017 93.87258148 C7.33895838 96.16623073 7.34196725 98.45919381 7.34057617 100.75292969 C7.34723801 102.05864929 7.35389984 103.3643689 7.36076355 104.70965576 C6.96995573 108.2740188 6.20772723 109.31266885 4 112 C3.54154833 114.19741823 3.54154833 114.19741823 3.58349609 116.55322266 C3.56692963 117.44739899 3.55036316 118.34157532 3.53329468 119.2628479 C3.53004181 120.22024872 3.52678894 121.17764954 3.5234375 122.1640625 C3.50785797 123.15248138 3.49227844 124.14090027 3.47622681 125.15927124 C3.42871618 128.31450628 3.40094335 131.46952012 3.375 134.625 C3.33852847 137.78746544 3.29793644 140.949805 3.25234985 144.1121521 C3.22509326 146.07970832 3.20375505 148.0473569 3.18881226 150.01504517 C3.17855011 150.90291718 3.16828796 151.79078918 3.15771484 152.70556641 C3.15121918 153.48848053 3.14472351 154.27139465 3.13803101 155.07803345 C3 157 3 157 2 159 C1.34 159 0.68 159 0 159 C0 106.53 0 54.06 0 0 Z " fill="#DFB439" transform="translate(0,0)"/>
<path d="M0 0 C1.75 2.5625 1.75 2.5625 1.75 4.5625 C-46.76 4.5625 -95.27 4.5625 -145.25 4.5625 C-144.25 0.5625 -144.25 0.5625 -142.53382874 -1.16215897 C-139.7309761 -2.72733455 -137.91210021 -2.82363136 -134.70874023 -2.84295654 C-133.58152557 -2.85693985 -132.45431091 -2.87092316 -131.29293823 -2.8853302 C-130.06060455 -2.88546616 -128.82827087 -2.88560211 -127.55859375 -2.88574219 C-126.25745636 -2.89754013 -124.95631897 -2.90933807 -123.61575317 -2.92149353 C-120.0497113 -2.95335631 -116.48381408 -2.96673767 -112.91765213 -2.97654247 C-109.18518631 -2.98965128 -105.45284408 -3.01879067 -101.72045898 -3.04595947 C-95.45266207 -3.08926097 -89.18488902 -3.12137586 -82.91699219 -3.14599609 C-74.8730625 -3.17765386 -66.8293605 -3.22786326 -58.78556824 -3.28391647 C-51.86877574 -3.33195002 -44.95193754 -3.37125876 -38.03508377 -3.40927219 C-35.81235389 -3.42187583 -33.58963422 -3.4357136 -31.36691284 -3.44972992 C-27.22508981 -3.47520843 -23.08327957 -3.49159232 -18.94140625 -3.50683594 C-17.70907257 -3.51506882 -16.47673889 -3.5233017 -15.20706177 -3.53178406 C-14.07984711 -3.53448807 -12.95263245 -3.53719208 -11.79125977 -3.53997803 C-10.81198013 -3.54437771 -9.8327005 -3.54877739 -8.82374573 -3.55331039 C-4.63842891 -3.36498441 -2.90207778 -3.14391759 0 0 Z " fill="#FEEE46" transform="translate(152.25,150.4375)"/>
<path d="M0 0 C0 41.25 0 82.5 0 125 C-5.36036036 121.78378378 -5.36036036 121.78378378 -7 118 C-7.66 117.67 -8.32 117.34 -9 117 C-8.98618904 102.48319565 -8.94360891 87.96671988 -8.86790943 73.4501009 C-8.83326874 66.70961711 -8.80790516 59.96933763 -8.80444336 53.22875977 C-8.80107718 46.72523939 -8.77177575 40.22213699 -8.72656822 33.71877098 C-8.71356608 31.23607563 -8.70929508 28.75331887 -8.71384621 26.27059364 C-8.71873254 22.79612183 -8.6927441 19.32316297 -8.65942383 15.84887695 C-8.66804947 14.81957062 -8.67667511 13.79026428 -8.68556213 12.72976685 C-8.60923098 7.99007011 -8.5340887 5.72114248 -5.64628601 1.82194519 C-3 0 -3 0 0 0 Z " fill="#ECC931" transform="translate(145,18)"/>
<path d="M0 0 C0 1.65 0 3.3 0 5 C-1.05058594 5.25394531 -2.10117188 5.50789063 -3.18359375 5.76953125 C-15.38844007 8.51219598 -15.38844007 8.51219598 -27 13 C-28.66565749 13.15222973 -30.33656496 13.24917215 -32.0078125 13.31640625 C-32.99394531 13.35830078 -33.98007813 13.40019531 -34.99609375 13.44335938 C-36.02863281 13.48267578 -37.06117187 13.52199219 -38.125 13.5625 C-39.68541016 13.62727539 -39.68541016 13.62727539 -41.27734375 13.69335938 C-43.85142528 13.7996288 -46.42560508 13.90166583 -49 14 C-49 13.34 -49 12.68 -49 12 C-49.5775 12.639375 -50.155 13.27875 -50.75 13.9375 C-55.56040091 16.99025442 -60.40562954 16.82155118 -66 17 C-65.0919838 15.86800647 -64.17316174 14.74467637 -63.25 13.625 C-62.48429687 12.68527344 -62.48429687 12.68527344 -61.703125 11.7265625 C-59.9013783 9.90002112 -58.3212327 9.04829864 -56 8 C-54.64886795 7.02418241 -53.31053056 6.02970259 -52 5 C-53.65 4.67 -55.3 4.34 -57 4 C-57 3.01 -57 2.02 -57 1 C-51.25904948 -2.74061933 -45.57608474 -2.51264648 -38.875 -2.625 C-36.72647405 -2.67609455 -34.57802669 -2.73064042 -32.4296875 -2.7890625 C-31.48335449 -2.80662598 -30.53702148 -2.82418945 -29.56201172 -2.84228516 C-9.27772485 -4.09096529 -9.27772485 -4.09096529 0 0 Z " fill="#53B649" transform="translate(135,80)"/>
<path d="M0 0 C0.99 0.495 0.99 0.495 2 1 C2 52.81 2 104.62 2 158 C-49.81 158 -101.62 158 -155 158 C-151.48947684 155.65965123 -150.06130751 155.74221398 -145.9066925 155.7215271 C-144.63203125 155.71036362 -143.35737 155.69920013 -142.04408264 155.68769836 C-140.62875396 155.68533332 -139.21342494 155.68315768 -137.7980957 155.68115234 C-136.30998183 155.67185574 -134.82187318 155.66168747 -133.33377075 155.65071106 C-129.29070002 155.62336673 -125.24766421 155.60824857 -121.20452523 155.59528303 C-116.98040009 155.57967184 -112.75634648 155.55287524 -108.53227234 155.5272522 C-100.53193209 155.48042871 -92.53157844 155.44370191 -84.53117102 155.41057932 C-75.4236127 155.37238313 -66.31612616 155.32296644 -57.2086283 155.27259517 C-38.47247137 155.16922223 -19.73627065 155.07997929 -1 155 C-1.00111031 154.15962787 -1.00222061 153.31925573 -1.00336456 152.45341778 C-1.10087249 75.02261826 -1.10087249 75.02261826 -0.53643799 37.76519775 C-0.47211203 33.43531753 -0.41419762 29.10534973 -0.35546875 24.77539062 C-0.24264561 16.51683956 -0.12380251 8.25839382 0 0 Z " fill="#A78146" transform="translate(158,2)"/>
<path d="M0 0 C0.66 0 1.32 0 2 0 C2 36.96 2 73.92 2 112 C3.485 111.505 3.485 111.505 5 111 C6.48483665 110.91112745 7.97336827 110.87801785 9.46086121 110.87974548 C10.37371384 110.87837082 11.28656647 110.87699615 12.2270813 110.87557983 C13.22617523 110.87917511 14.22526917 110.88277039 15.25463867 110.88647461 C16.30846237 110.88632858 17.36228607 110.88618256 18.44804382 110.8860321 C21.9380396 110.88672985 25.42798228 110.89451584 28.91796875 110.90234375 C31.33506745 110.90420842 33.75216653 110.90563209 36.16926575 110.90663147 C42.53641805 110.91045279 48.90354761 110.92027982 55.27069092 110.93133545 C61.76574394 110.94155782 68.26080063 110.94613086 74.75585938 110.95117188 C87.50391596 110.96190241 100.25195677 110.97878249 113 111 C112.99815641 110.45223782 112.99631283 109.90447563 112.99441338 109.34011459 C112.95024339 96.01143991 112.9172755 82.68277805 112.89637566 69.35404587 C112.88592947 62.90836616 112.87175494 56.46273919 112.84912109 50.01708984 C112.82742264 43.79904917 112.81543767 37.58105931 112.81024551 31.3629837 C112.80654438 28.98827566 112.79931718 26.61357045 112.78853989 24.23888397 C112.77406495 20.91798347 112.7720204 17.59729406 112.77294922 14.27636719 C112.76575867 13.29021927 112.75856812 12.30407135 112.75115967 11.28804016 C112.753909 10.38222702 112.75665833 9.47641388 112.75949097 8.54315186 C112.75764738 7.75778423 112.75580379 6.97241661 112.75390434 6.16324997 C113.02998003 3.73646715 113.79150958 2.10548285 115 0 C115.04667978 14.43804531 115.0818362 28.87607896 115.10362434 43.31418419 C115.11394563 50.01774998 115.12802217 56.72126895 115.15087891 63.42480469 C115.17254588 69.88922246 115.18455562 76.35359149 115.18975449 82.81804276 C115.19346132 85.28930046 115.20069939 87.76055539 115.21146011 90.23179245 C115.22589332 93.68241984 115.22798137 97.13284357 115.22705078 100.58349609 C115.23424133 101.61423752 115.24143188 102.64497894 115.24884033 103.70695496 C115.246091 104.64367538 115.24334167 105.58039581 115.24050903 106.54550171 C115.24235262 107.36221029 115.24419621 108.17891888 115.24609566 109.02037621 C115 111 115 111 113 113 C110.98914146 113.24609566 110.98914146 113.24609566 108.46957397 113.24050903 C107.51602524 113.24325836 106.5624765 113.24600769 105.58003235 113.24884033 C104.53058945 113.24164978 103.48114655 113.23445923 102.39990234 113.22705078 C101.29745682 113.22734283 100.19501129 113.22763489 99.05915833 113.22793579 C95.40133903 113.22653822 91.74372138 113.2109568 88.0859375 113.1953125 C85.55530916 113.19158389 83.02467937 113.1887362 80.49404907 113.18673706 C74.50523494 113.17987111 68.51650788 113.16409512 62.52772868 113.14403808 C55.71040993 113.12170069 48.89308775 113.1106911 42.07574153 113.10064721 C28.050454 113.07972945 14.02523098 113.04453999 0 113 C-0.13105254 100.41237152 -0.26148898 87.82473681 -0.39115143 75.23709393 C-0.45138592 69.39137652 -0.51182803 63.54566142 -0.57275391 57.69995117 C-0.63160601 52.05246795 -0.68990058 46.40497922 -0.74781799 40.75748634 C-0.76994712 38.60906585 -0.79227293 36.46064738 -0.81480408 34.31223106 C-0.84646698 31.28978359 -0.87741347 28.26732953 -0.90820312 25.24487305 C-0.91755386 24.36804871 -0.9269046 23.49122437 -0.9365387 22.58782959 C-0.95331638 20.91346493 -0.96790276 19.23907663 -0.9801178 17.56467247 C-0.99434551 15.72939216 -1.01532468 13.89415927 -1.04075623 12.05900002 C-1.04982498 11.0857295 -1.05889374 10.11245899 -1.0682373 9.10969543 C-1.07901054 8.22760816 -1.08978378 7.34552088 -1.10088348 6.43670368 C-1.00577301 4.13943914 -0.64844675 2.19836766 0 0 Z " fill="#B79128" transform="translate(22,24)"/>
<path d="M0 0 C0 0.66 0 1.32 0 2 C1.98 2 3.96 2 6 2 C2.5963189 5.60389763 -0.85734297 8.29826716 -5 11 C-6.79394446 12.62351109 -6.79394446 12.62351109 -8 14 C-6.68 14.66 -5.36 15.32 -4 16 C-4.495 16.495 -4.495 16.495 -5 17 C-4.34 17.66 -3.68 18.32 -3 19 C-35.10150945 19.41277905 -35.10150945 19.41277905 -51 17 C-51 13.7 -51 10.4 -51 7 C-43.44507336 6.69780293 -37.14394706 7.44667304 -29.84765625 9.44140625 C-24.47381613 10.49553401 -21.39607915 8.21032473 -16.75 5.5625 C-11.32664429 2.58544985 -6.32064658 0 0 0 Z " fill="#75D749" transform="translate(78,82)"/>
<path d="M0 0 C1.32 0.66 2.64 1.32 4 2 C4 2.66 4 3.32 4 4 C4.85271484 3.93039063 4.85271484 3.93039063 5.72265625 3.859375 C11.78852783 3.57582842 15.0551019 4.43967337 20 8 C23 11.29032258 23 11.29032258 23 14 C22.21625 14.4125 21.4325 14.825 20.625 15.25 C17.71452637 16.75307001 17.71452637 16.75307001 17.375 19.8125 C15.66577048 23.7748048 14.36890693 24.04413323 10.5625 25.875 C6.5205377 27.86423799 4.36115521 29.06305803 2.8125 33.375 C2.544375 34.57125 2.27625 35.7675 2 37 C1.34 37 0.68 37 0 37 C-0.042721 35.33388095 -0.04063832 33.66617115 0 32 C0.33 31.67 0.66 31.34 1 31 C-2.82180842 26.5991297 -5.47371099 25.19194469 -11 24 C-11 23.34 -11 22.68 -11 22 C-9.35 21.34 -7.7 20.68 -6 20 C-6 19.01 -6 18.02 -6 17 C-7.32 16.67 -8.64 16.34 -10 16 C-10 15.01 -10 14.02 -10 13 C-8.35 13 -6.7 13 -5 13 C-5 9.89448334 -5.5393715 8.64738916 -7 6 C-4.69 6.33 -2.38 6.66 0 7 C0 6.34 0 5.68 0 5 C0 3.33333333 0 1.66666667 0 0 Z " fill="#E6D218" transform="translate(38,30)"/>
<path d="M0 0 C0.33 0 0.66 0 1 0 C1 43.89 1 87.78 1 133 C-42.56 133 -86.12 133 -131 133 C-130.67 132.01 -130.34 131.02 -130 130 C-130 130.66 -130 131.32 -130 132 C-87.76 132 -45.52 132 -2 132 C-2 90.09 -2 48.18 -2 5 C-2.99 4.505 -2.99 4.505 -4 4 C-3.01 3.67 -2.02 3.34 -1 3 C-0.67 2.01 -0.34 1.02 0 0 Z " fill="#CA9525" transform="translate(147,13)"/>
<path d="M0 0 C52.8 0 105.6 0 160 0 C159.67 0.99 159.34 1.98 159 3 C81.285 2.505 81.285 2.505 2 2 C2 53.81 2 105.62 2 159 C1.34 159 0.68 159 0 159 C0 106.53 0 54.06 0 0 Z " fill="#DBBE7E" transform="translate(0,0)"/>
<path d="M0 0 C51.15 0 102.3 0 155 0 C155 0.66 155 1.32 155 2 C104.84 2 54.68 2 3 2 C3.99 3.485 3.99 3.485 5 5 C5.44457945 9.48610302 5.3241246 13.99430493 5.3125 18.5 C5.32861328 19.74910156 5.34472656 20.99820312 5.36132812 22.28515625 C5.36229492 24.07759766 5.36229492 24.07759766 5.36328125 25.90625 C5.36626221 27.00259766 5.36924316 28.09894531 5.37231445 29.22851562 C5 32 5 32 3.50375366 33.41670227 C1.60603688 35.41480259 1.6094528 36.38556792 1.56762695 39.10424805 C1.54783279 39.92487228 1.52803864 40.74549652 1.50764465 41.59098816 C1.50125473 42.47232925 1.49486481 43.35367035 1.48828125 44.26171875 C1.47033005 45.16751175 1.45237885 46.07330475 1.43388367 47.00654602 C1.37969341 49.90014996 1.34585714 52.79358815 1.3125 55.6875 C1.27933461 57.64911165 1.24484568 59.61070141 1.20898438 61.57226562 C1.12396194 66.38139097 1.0571924 71.19046641 1 76 C0.67 76 0.34 76 0 76 C0 50.92 0 25.84 0 0 Z " fill="#FAE03F" transform="translate(2,2)"/>
<path d="M0 0 C3.05580159 5.25597874 3.05580159 5.25597874 2.8125 8.5 C2.24027179 10.2607022 1.63268792 12.01010823 1 13.75 C-0.06837272 17.22221134 -0.45343462 20.44121544 -0.75390625 24.046875 C-1 26 -1 26 -2 28 C-17.6044465 27.47985178 -17.6044465 27.47985178 -22 23 C-22.94574362 19.96944035 -23.10805021 17.16046858 -23 14 C-21.73308493 13.32591692 -20.46129251 12.66099503 -19.1875 12 C-18.47980469 11.62875 -17.77210937 11.2575 -17.04296875 10.875 C-15 10 -15 10 -12 10 C-11.773125 8.906875 -11.54625 7.81375 -11.3125 6.6875 C-10 3 -10 3 -7.6875 1.0625 C-4.89110811 -0.04305028 -2.9756394 -0.25505481 0 0 Z " fill="#D3DAE4" transform="translate(122,41)"/>
<path d="M0 0 C47.85 0 95.7 0 145 0 C144.67 1.32 144.34 2.64 144 4 C143.34 4.33 142.68 4.66 142 5 C141.01 4.505 141.01 4.505 140 4 C138.18843801 3.89470462 136.37302353 3.85339229 134.55844116 3.84178162 C133.40295273 3.8319928 132.24746429 3.82220398 131.05696106 3.81211853 C129.78310043 3.80636307 128.50923981 3.8006076 127.19677734 3.79467773 C125.84674274 3.78510131 124.49671115 3.77509137 123.14668274 3.76467896 C119.4754499 3.73759821 115.80420416 3.71660585 112.13292646 3.69667697 C108.29852404 3.67483693 104.46416152 3.64743856 100.62979126 3.62062073 C93.36606478 3.57066699 86.10231619 3.52573813 78.8385464 3.48259836 C70.57019089 3.43324888 62.30187541 3.37832228 54.03355861 3.32291877 C37.02240938 3.20905757 20.01122303 3.10222756 3 3 C2.67 3.66 2.34 4.32 2 5 C1.34 3.35 0.68 1.7 0 0 Z " fill="#C1831E" transform="translate(7,6)"/>
<path d="M0 0 C0.99 1.485 0.99 1.485 2 3 C2.66 3.33 3.32 3.66 4 4 C3.67 46.57 3.34 89.14 3 133 C2.01 133 1.02 133 0 133 C0 89.11 0 45.22 0 0 Z " fill="#AA761F" transform="translate(12,13)"/>
<path d="M0 0 C36.3 0 72.6 0 110 0 C110 0.99 110 1.98 110 3 C74.03 3 38.06 3 1 3 C1 22.8 1 42.6 1 63 C0.67 63 0.34 63 0 63 C0 42.21 0 21.42 0 0 Z " fill="#3B6572" transform="translate(25,25)"/>
<path d="M0 0 C0 0.66 0 1.32 0 2 C-3.19736158 3.88203984 -5.5362769 4.24791912 -9.22650146 4.24050903 C-10.28376938 4.24325836 -11.34103729 4.24600769 -12.43034363 4.24884033 C-13.58480484 4.24164978 -14.73926605 4.23445923 -15.92871094 4.22705078 C-17.75838158 4.22748886 -17.75838158 4.22748886 -19.62501526 4.22793579 C-22.96567804 4.22678157 -26.30609333 4.21675433 -29.6467123 4.20278788 C-33.13940641 4.19028145 -36.63210385 4.18911009 -40.12481689 4.18673706 C-46.73687655 4.18052203 -53.34887003 4.16411092 -59.96090055 4.14403808 C-67.48925671 4.12167979 -75.01761604 4.11068583 -82.54599714 4.10064721 C-98.03070308 4.0797447 -113.515343 4.04456829 -129 4 C-129 3.01 -129 2.02 -129 1 C-112.47579841 0.86952066 -95.95159611 0.73913094 -79.42739296 0.60884857 C-71.75530591 0.54835716 -64.08321909 0.48783617 -56.41113281 0.42724609 C-49.72587644 0.37444955 -43.04061963 0.32170795 -36.3553623 0.26903296 C-32.81402198 0.24112782 -29.27268189 0.21319475 -25.73134232 0.18519592 C-21.78264685 0.15397746 -17.83395043 0.12288164 -13.88525391 0.09179688 C-12.70490067 0.08244614 -11.52454742 0.0730954 -10.3084259 0.0634613 C-8.70140556 0.05084007 -8.70140556 0.05084007 -7.06192017 0.03796387 C-6.12722208 0.03058952 -5.19252399 0.02321518 -4.22950172 0.01561737 C-2.81969279 0.00574184 -1.40984352 0 0 0 Z " fill="#522D05" transform="translate(146,15)"/>
<path d="M0 0 C0 19.14 0 38.28 0 58 C-0.33 57.34 -0.66 56.68 -1 56 C-4.0745356 56.7763932 -4.0745356 56.7763932 -6 59 C-7.57325602 49.80416277 -7.33757086 40.48833228 -7.4050293 31.18383789 C-7.42672965 28.93075344 -7.46097182 26.67775591 -7.50756836 24.42504883 C-7.57428467 21.16449666 -7.60196736 17.90566775 -7.62109375 14.64453125 C-7.64892441 13.63719437 -7.67675507 12.62985748 -7.70542908 11.59199524 C-7.69754125 8.92500695 -7.64254127 6.58881846 -7 4 C-2.53320509 0 -2.53320509 0 0 0 Z " fill="#F4DB3E" transform="translate(144,19)"/>
<path d="M0 0 C0.33 0 0.66 0 1 0 C1.88021369 6.71162938 2.11381955 13.23405981 2 20 C2.99 20 3.98 20 5 20 C5.09911652 24.89292532 5.17158399 29.78526221 5.21972656 34.67895508 C5.23980207 36.34247013 5.26706876 38.00591496 5.30175781 39.66918945 C5.35045766 42.0647924 5.37300856 44.45945992 5.390625 46.85546875 C5.41127014 47.5952446 5.43191528 48.33502045 5.45318604 49.09721375 C5.45478572 52.80540547 5.09920373 54.84284242 3.10058594 58.0090332 C1 60 1 60 -1 60 C-1 60.99 -1 61.98 -1 63 C41.9 63 84.8 63 129 63 C129 63.33 129 63.66 129 64 C84.78 64 40.56 64 -5 64 C-3.515 63.505 -3.515 63.505 -2 63 C-2.01160156 62.0821875 -2.02320313 61.164375 -2.03515625 60.21875 C-2.04417969 58.9915625 -2.05320312 57.764375 -2.0625 56.5 C-2.07410156 55.2934375 -2.08570313 54.086875 -2.09765625 52.84375 C-2 49 -2 49 -1.51367188 45.36914062 C-0.90458933 40.66447502 -0.77617109 35.98915628 -0.68359375 31.25 C-0.66281265 30.35128174 -0.64203156 29.45256348 -0.62062073 28.52661133 C-0.55576947 25.68447764 -0.49654304 22.84225967 -0.4375 20 C-0.39425335 18.06118956 -0.35063721 16.12238732 -0.30664062 14.18359375 C-0.20015513 9.45581329 -0.09871053 4.72794893 0 0 Z " fill="#BE871F" transform="translate(17,83)"/>
<path d="M0 0 C35.97 0 71.94 0 109 0 C108.34 0.99 107.68 1.98 107 3 C106.01 2.67 105.02 2.34 104 2 C101.30728714 1.90877869 98.64099575 1.87397866 95.94848633 1.88647461 C95.12874832 1.88632858 94.30901031 1.88618256 93.46443176 1.8860321 C90.75360472 1.88672904 88.0428463 1.89451122 85.33203125 1.90234375 C83.45301857 1.90420871 81.5740054 1.90563224 79.69499207 1.90663147 C74.74824685 1.91045052 69.80153098 1.92027562 64.85479736 1.93133545 C59.80749915 1.9415627 54.76019621 1.94613191 49.71289062 1.95117188 C39.80858086 1.96189841 29.90429287 1.97896752 20 2 C20 3.32 20 4.64 20 6 C16 6 16 6 13.75 4 C13.1725 3.34 12.595 2.68 12 2 C12 3.65 12 5.3 12 7 C12.99 7.33 13.98 7.66 15 8 C10.56923077 10.09230769 10.56923077 10.09230769 7.6875 9.625 C7.130625 9.41875 6.57375 9.2125 6 9 C6.99 10.32 7.98 11.64 9 13 C7.75 14.5625 7.75 14.5625 6 16 C3.8125 15.6875 3.8125 15.6875 2 15 C2.33 15.99 2.66 16.98 3 18 C3.99 18.33 4.98 18.66 6 19 C6 19.99 6 20.98 6 22 C4.35 22.66 2.7 23.32 1 24 C1 36.21 1 48.42 1 61 C0.67 61 0.34 61 0 61 C0 40.87 0 20.74 0 0 Z " fill="#75B3C2" transform="translate(26,28)"/>
<path d="M0 0 C0.33 0 0.66 0 1 0 C1.33 18.81 1.66 37.62 2 57 C-2.57311035 57.02505615 -7.1462207 57.0501123 -11.85791016 57.07592773 C-26.9533482 57.15933694 -42.04875212 57.24798234 -57.14414406 57.33933926 C-66.29806887 57.39461033 -75.45199758 57.44808223 -84.60595703 57.49731445 C-92.58481507 57.54023127 -100.56364513 57.58652806 -108.54245985 57.63687855 C-112.76691065 57.66341914 -116.99135611 57.68827057 -121.21583939 57.70907402 C-125.19337128 57.72871478 -129.1708502 57.75288042 -133.1483345 57.78049088 C-134.60678135 57.78982202 -136.06523979 57.79751128 -137.52370453 57.80341911 C-139.51848165 57.81174745 -141.51322826 57.82661216 -143.50796509 57.84178162 C-144.6233346 57.84823417 -145.73870411 57.85468672 -146.8878727 57.8613348 C-149.99878802 57.999946 -152.94270695 58.42240906 -156 59 C-155.01 58.505 -155.01 58.505 -154 58 C-154 57.34 -154 56.68 -154 56 C-118.56234802 55.00770352 -83.13664865 54.91093638 -47.6875 54.9375 C-46.53708725 54.93835602 -45.3866745 54.93921204 -44.20140076 54.94009399 C-29.80091869 54.95159522 -15.40045873 54.97182856 -1 55 C-1.00253784 53.74132614 -1.00507568 52.48265228 -1.00769043 51.18583679 C-1.03192617 34.17004332 -1.03192617 34.17004332 -0.78125 26.26953125 C-0.75905396 25.49735764 -0.73685791 24.72518402 -0.71398926 23.92961121 C-0.64522552 21.55715658 -0.57272463 19.18483611 -0.5 16.8125 C-0.45156937 15.16472097 -0.40339153 13.5169345 -0.35546875 11.86914062 C-0.23987051 7.91266911 -0.12093109 3.95631195 0 0 Z " fill="#CA8F20" transform="translate(156,101)"/>
<path d="M0 0 C35.31 0 70.62 0 107 0 C107.495 1.485 107.495 1.485 108 3 C72.36 3 36.72 3 0 3 C0 2.01 0 1.02 0 0 Z " fill="#7C6315" transform="translate(28,12)"/>
<path d="M0 0 C36.96 0 73.92 0 112 0 C111.67 1.32 111.34 2.64 111 4 C111 3.01 111 2.02 111 1 C74.7 1 38.4 1 1 1 C1.144375 11.374375 1.28875 21.74875 1.4375 32.4375 C1.48060303 35.71743896 1.52370605 38.99737793 1.56811523 42.37670898 C1.60621836 44.95817635 1.64468578 47.53963838 1.68359375 50.12109375 C1.69173599 50.79608414 1.69987823 51.47107452 1.70826721 52.16651917 C1.73251383 54.14549768 1.76345095 56.1243908 1.79467773 58.10327148 C1.81022202 59.22023911 1.8257663 60.33720673 1.84178162 61.48802185 C1.71819038 63.93861001 1.71819038 63.93861001 3 65 C3.09304018 66.47354348 3.11746265 67.95150591 3.11352539 69.42797852 C3.11341209 70.83932823 3.11341209 70.83932823 3.11329651 72.27919006 C3.10813522 73.30209641 3.10297394 74.32500275 3.09765625 75.37890625 C3.09553383 76.941605 3.09553383 76.941605 3.09336853 78.53587341 C3.0877508 81.87811094 3.0751953 85.22028257 3.0625 88.5625 C3.05748728 90.82226466 3.05292398 93.08203037 3.04882812 95.34179688 C3.03777561 100.89455391 3.02102024 106.44727225 3 112 C2.01 112 1.02 112 0 112 C0 75.04 0 38.08 0 0 Z " fill="#4D551F" transform="translate(24,24)"/>
<path d="M0 0 C0.33 0 0.66 0 1 0 C2.13654168 4.54879146 2.16152909 9.03165366 2.17700195 13.68994141 C2.18357315 14.55392044 2.19014435 15.41789948 2.19691467 16.30805969 C2.21656527 19.15589491 2.2282869 22.00367782 2.23828125 24.8515625 C2.24235678 25.82513073 2.2464323 26.79869896 2.25063133 27.80176926 C2.27144885 32.94694555 2.28577372 38.09209545 2.29516602 43.23730469 C2.30626978 48.55845317 2.34072731 53.879188 2.38033772 59.20018959 C2.40641886 63.28875531 2.41484986 67.37722068 2.41844749 71.46586227 C2.42332922 73.42833653 2.43498801 75.39080585 2.45348549 77.35319901 C2.47771424 80.09208927 2.47694293 82.82988409 2.4699707 85.56884766 C2.48278076 86.38242233 2.49559082 87.19599701 2.50878906 88.03422546 C2.45749591 93.54305104 2.45749591 93.54305104 -0.02937317 96.02694702 C-0.67968002 96.3480545 -1.32998688 96.66916199 -2 97 C-6.36224401 88.27551198 -2.72477111 70.7373114 -2.34375 61.03515625 C-2.27624138 59.26298448 -2.20898533 57.49080308 -2.14196777 55.71861267 C-1.96692123 51.10733334 -1.78849867 46.49619094 -1.60931396 41.8850708 C-1.42626038 37.15848616 -1.24648105 32.43177702 -1.06640625 27.70507812 C-0.71409812 18.46992908 -0.35821466 9.2349217 0 0 Z " fill="#C28D23" transform="translate(8,56)"/>
<path d="M0 0 C49.5 0 99 0 150 0 C149.34 1.32 148.68 2.64 148 4 C147.67 3.34 147.34 2.68 147 2 C98.82 2.33 50.64 2.66 1 3 C0.67 2.01 0.34 1.02 0 0 Z " fill="#DEB22D" transform="translate(5,4)"/>
<path d="M0 0 C0.99 0 1.98 0 3 0 C3 41.25 3 82.5 3 125 C-2.36036036 121.78378378 -2.36036036 121.78378378 -4 118 C-4.66 117.67 -5.32 117.34 -6 117 C-5.67 112.38 -5.34 107.76 -5 103 C-3.02 102.505 -3.02 102.505 -1 102 C-1.66 101.67 -2.32 101.34 -3 101 C-2.34 99.35 -1.68 97.7 -1 96 C-0.01 96.33 0.98 96.66 2 97 C1.67 65.65 1.34 34.3 1 2 C-0.98 2.99 -0.98 2.99 -3 4 C-1.6875 2 -1.6875 2 0 0 Z " fill="#DFB62B" transform="translate(142,18)"/>
<path d="M0 0 C17.82803777 -0.02333619 35.65607159 -0.04098273 53.48412132 -0.05181217 C61.76155482 -0.05697359 70.03897884 -0.06401338 78.31640625 -0.07543945 C85.52904028 -0.08539097 92.74166745 -0.09185455 99.95430815 -0.09408849 C103.77511356 -0.0953948 107.59589933 -0.09847564 111.41669846 -0.10573006 C115.01006861 -0.11249764 118.60341096 -0.11461545 122.19678688 -0.11310768 C124.15018187 -0.11351566 126.10357381 -0.11890703 128.05696106 -0.12442017 C129.21244949 -0.1230455 130.36793793 -0.12167084 131.55844116 -0.12025452 C132.56688269 -0.12117631 133.57532421 -0.1220981 134.61432457 -0.12304783 C137 0 137 0 139 1 C138.67 1.66 138.34 2.32 138 3 C92.46 3 46.92 3 0 3 C0 2.01 0 1.02 0 0 Z " fill="#946217" transform="translate(10,9)"/>
<path d="M0 0 C0.99 0.66 1.98 1.32 3 2 C3 2.66 3 3.32 3 4 C-45.51 4 -94.02 4 -144 4 C-143.67 3.01 -143.34 2.02 -143 1 C-143 1.66 -143 2.32 -143 3 C-141.2986792 2.95456055 -141.2986792 2.95456055 -139.56298828 2.90820312 C-106.93582012 2.0644245 -74.32390805 1.91020633 -41.6875 1.9375 C-40.14124813 1.93878403 -40.14124813 1.93878403 -38.56375885 1.94009399 C-25.70915546 1.95155521 -12.85457702 1.97173297 0 2 C0 1.34 0 0.68 0 0 Z " fill="#F8D53E" transform="translate(151,151)"/>
<path d="M0 0 C0 0.66 0 1.32 0 2 C1.98 2 3.96 2 6 2 C2.59288152 5.60753721 -0.86983492 8.27584857 -5 11 C-5.5775 11.78375 -6.155 12.5675 -6.75 13.375 C-9 15 -9 15 -11.29296875 14.875 C-15.70079213 14.04161537 -19.92230214 12.90292567 -24 11 C-18.37110358 4.7352814 -8.48658756 0 0 0 Z " fill="#6AD95C" transform="translate(78,82)"/>
<path d="M0 0 C1 1 2 2 3 3 C3.33 3 3.66 3 4 3 C4 9.27 4 15.54 4 22 C2.68 22 1.36 22 0 22 C0.33 23.98 0.66 25.96 1 28 C-1.25414782 24.61877827 -1.24544447 23.3935272 -1.1875 19.4375 C-1.18105469 18.46683594 -1.17460937 17.49617188 -1.16796875 16.49609375 C-1 14 -1 14 0 12 C-0.2475 10.9171875 -0.2475 10.9171875 -0.5 9.8125 C-1.11724532 6.34049508 -0.60920148 3.45214169 0 0 Z M-4 27 C-3.67 27.66 -3.34 28.32 -3 29 C-2.01 28.67 -1.02 28.34 0 28 C0.05819473 32.06243957 0.09366215 36.12477146 0.125 40.1875 C0.14175781 41.33798828 0.15851563 42.48847656 0.17578125 43.67382812 C0.18222656 44.78564453 0.18867188 45.89746094 0.1953125 47.04296875 C0.20578613 48.06414795 0.21625977 49.08532715 0.22705078 50.13745117 C-0.01000368 53.12612167 -0.74382898 55.29423369 -2 58 C-2.66 57.67 -3.32 57.34 -4 57 C-4 47.1 -4 37.2 -4 27 Z " fill="#F0CE33" transform="translate(153,47)"/>
<path d="M0 0 C4.875 2.875 4.875 2.875 6 4 C6.15710888 5.43434586 6.27604721 6.87297244 6.375 8.3125 C6.74368154 12.20209027 7.58448003 13.92570186 10 17 C9.86304402 19.80759757 9.47696941 21.39160558 7.73828125 23.609375 C5.54645937 25.3628325 4.08869205 25.48632666 1.3125 25.6875 C0.50425781 25.75324219 -0.30398437 25.81898437 -1.13671875 25.88671875 C-2.05904297 25.94279297 -2.05904297 25.94279297 -3 26 C-2.7186941 23.54006972 -2.42547269 21.08259752 -2.125 18.625 C-2.00705078 17.57699219 -2.00705078 17.57699219 -1.88671875 16.5078125 C-1.2265625 11.2265625 -1.2265625 11.2265625 1 9 C1.02308597 6.77871445 1.02308597 6.77871445 0.625 4.375 C0.51414062 3.55773438 0.40328125 2.74046875 0.2890625 1.8984375 C0.14597656 0.95871094 0.14597656 0.95871094 0 0 Z " fill="#C1C7D2" transform="translate(123,42)"/>
<path d="M0 0 C0.33 0 0.66 0 1 0 C0.96970703 0.75394043 0.93941406 1.50788086 0.90820312 2.28466797 C0.1107075 21.55771965 0.1107075 21.55771965 0.03710938 40.84326172 C0.09978213 45.80043574 0.09978213 45.80043574 -1 48 C15.5 48 32 48 49 48 C49 48.33 49 48.66 49 49 C31.84 49 14.68 49 -3 49 C-3.061875 41.6575 -3.12375 34.315 -3.1875 26.75 C-3.21481201 24.43709961 -3.24212402 22.12419922 -3.27026367 19.74121094 C-3.27902646 17.90560427 -3.28667089 16.06999178 -3.29296875 14.234375 C-3.30831665 13.28320801 -3.32366455 12.33204102 -3.33947754 11.35205078 C-3.33984009 10.43891113 -3.34020264 9.52577148 -3.34057617 8.58496094 C-3.34723801 7.79442322 -3.35389984 7.0038855 -3.36076355 6.18939209 C-2.90914833 3.44864186 -1.83958981 2.04515834 0 0 Z " fill="#DDAD2B" transform="translate(6,108)"/>
<path d="M0 0 C44.88 0 89.76 0 136 0 C135.67 1.65 135.34 3.3 135 5 C134.01 4.01 134.01 4.01 133 3 C125.81259903 1.49289353 118.15444408 1.86229287 110.84912109 1.88647461 C109.67723236 1.88632858 108.50534363 1.88618256 107.29794312 1.8860321 C103.45642187 1.88672416 99.61495019 1.89448324 95.7734375 1.90234375 C93.09729938 1.90421044 90.42116394 1.90568241 87.74502563 1.90663147 C81.44130807 1.90972685 75.13760806 1.91791583 68.83389819 1.92798096 C61.65121773 1.93919809 54.46853638 1.9446666 47.28584933 1.94967639 C32.52389062 1.96010013 17.76194562 1.9776645 3 2 C2.67 3.32 2.34 4.64 2 6 C0 2.25 0 2.25 0 0 Z " fill="#71530C" transform="translate(12,11)"/>
<path d="M0 0 C1.37482707 1.63260714 2.70647667 3.30225062 4 5 C4.99 5.66 5.98 6.32 7 7 C7 7.66 7 8.32 7 9 C-5.87 9 -18.74 9 -32 9 C-32 8.67 -32 8.34 -32 8 C-27.38 7.67 -22.76 7.34 -18 7 C-18 6.01 -18 5.02 -18 4 C-15.29120665 2.64560332 -12.99066732 2.93498549 -10 3 C-10 2.34 -10 1.68 -10 1 C-3.375 0 -3.375 0 0 0 Z " fill="#F3E142" transform="translate(138,136)"/>
<path d="M0 0 C0.66 0 1.32 0 2 0 C2.03867188 0.90492187 2.03867188 0.90492187 2.078125 1.828125 C2.28999909 7.01420284 2.28999909 7.01420284 5.125 11.125 C7 13 7 13 7.0625 16.5625 C6 20 6 20 3.875 21.9375 C0.4450867 23.20507666 -2.36893546 23.07262129 -6 23 C-5.77255191 20.20478271 -5.51925036 17.41622875 -5.25 14.625 C-5.188125 13.8309375 -5.12625 13.036875 -5.0625 12.21875 C-4.84367732 10.06699361 -4.61079513 8.07555098 -4 6 C-1.921875 4.4609375 -1.921875 4.4609375 0 4 C0 2.68 0 1.36 0 0 Z " fill="#B4BAC5" transform="translate(72,49)"/>
<path d="M0 0 C0.33 0 0.66 0 1 0 C1.08690253 4.43737712 1.14035926 8.87453634 1.1875 13.3125 C1.21263672 14.57513672 1.23777344 15.83777344 1.26367188 17.13867188 C1.27333984 18.34716797 1.28300781 19.55566406 1.29296875 20.80078125 C1.3086792 21.91622314 1.32438965 23.03166504 1.34057617 24.1809082 C1 27 1 27 -0.4942627 28.41967773 C-2.39569587 30.41529621 -2.39053877 31.38501979 -2.43237305 34.10424805 C-2.45216721 34.92487228 -2.47196136 35.74549652 -2.49235535 36.59098816 C-2.49874527 37.47232925 -2.50513519 38.35367035 -2.51171875 39.26171875 C-2.52966995 40.16751175 -2.54762115 41.07330475 -2.56611633 42.00654602 C-2.62030659 44.90014996 -2.65414286 47.79358815 -2.6875 50.6875 C-2.72066539 52.64911165 -2.75515432 54.61070141 -2.79101562 56.57226562 C-2.87603806 61.38139097 -2.9428076 66.19046641 -3 71 C-3.33 71 -3.66 71 -4 71 C-4.06942626 62.42924152 -4.12277341 53.85859999 -4.15543652 45.28763008 C-4.17111101 41.30802626 -4.19238138 37.32861441 -4.22631836 33.34912109 C-4.25884887 29.51065044 -4.27683957 25.67236476 -4.28463173 21.83376694 C-4.29018666 20.36727866 -4.30103379 18.90080082 -4.31719017 17.43439102 C-4.33888161 15.38458409 -4.34197055 13.33554725 -4.34057617 11.28564453 C-4.34723801 10.11760284 -4.35389984 8.94956116 -4.36076355 7.74612427 C-4.24171158 6.83990326 -4.12265961 5.93368225 -4 5 C-3.01 4.34 -2.02 3.68 -1 3 C-0.67 2.01 -0.34 1.02 0 0 Z " fill="#F3D037" transform="translate(6,7)"/>
<path d="M0 0 C0.66 0 1.32 0 2 0 C2.02470469 5.49926424 2.04286223 10.99849622 2.05493164 16.49780273 C2.05996279 18.36890221 2.06678835 20.23999775 2.07543945 22.11108398 C2.08755829 24.79932628 2.09324047 27.48751664 2.09765625 30.17578125 C2.10281754 31.01337479 2.10797882 31.85096832 2.11329651 32.71394348 C2.11362064 36.06375742 2.06684515 38.79946456 1 42 C0.34 42 -0.32 42 -1 42 C-1.33 42.66 -1.66 43.32 -2 44 C-2.0494009 38.21591441 -2.08572 32.43195136 -2.10986328 26.64770508 C-2.11992707 24.67958436 -2.13357934 22.71147862 -2.15087891 20.7434082 C-2.17511059 17.91614082 -2.18647923 15.08907095 -2.1953125 12.26171875 C-2.20563507 11.38037766 -2.21595764 10.49903656 -2.22659302 9.59098816 C-2.22674408 8.77036392 -2.22689514 7.94973969 -2.22705078 7.10424805 C-2.231492 6.38254929 -2.23593323 5.66085052 -2.24050903 4.9172821 C-2 3 -2 3 0 0 Z " fill="#E9C133" transform="translate(5,34)"/>
<path d="M0 0 C1.65 1.65 3.3 3.3 5 5 C4.34 5.66 3.68 6.32 3 7 C2.70833918 9.06080144 2.70833918 9.06080144 2.77294922 11.44970703 C2.77310028 12.37051056 2.77325134 13.29131409 2.77340698 14.24002075 C2.78372955 15.23589203 2.79405212 16.23176331 2.8046875 17.2578125 C2.80893234 18.78509476 2.80893234 18.78509476 2.81326294 20.3432312 C2.8244823 23.603939 2.84959004 26.86437484 2.875 30.125 C2.88502753 32.33202729 2.89415377 34.53905888 2.90234375 36.74609375 C2.92442732 42.16415572 2.95792205 47.58205843 3 53 C2.67 53 2.34 53 2 53 C1.67 59.27 1.34 65.54 1 72 C0.67 72 0.34 72 0 72 C0 48.24 0 24.48 0 0 Z " fill="#DDAA2D" transform="translate(7,8)"/>
<path d="M0 0 C2.475 0.495 2.475 0.495 5 1 C4.87431641 1.90492187 4.87431641 1.90492187 4.74609375 2.828125 C4.64425781 3.62734375 4.54242188 4.4265625 4.4375 5.25 C4.33308594 6.03890625 4.22867188 6.8278125 4.12109375 7.640625 C3.99972651 10.00532874 4.30366743 11.7511037 5 14 C4.34 14 3.68 14 3 14 C3.14120016 16.58366245 3.28778333 19.16682885 3.4375 21.75 C3.47681641 22.47960937 3.51613281 23.20921875 3.55664062 23.9609375 C3.78495702 28.08087352 3.78495702 28.08087352 4.5546875 32.12304688 C5.35298191 35.48778778 3.45035595 37.98325962 2 41 C0 39 0 39 -0.22705078 35.19287109 C-0.22673346 33.5530258 -0.21539681 31.91315983 -0.1953125 30.2734375 C-0.1924826 29.41062164 -0.18965271 28.54780579 -0.18673706 27.65884399 C-0.17552333 24.8974228 -0.15041684 22.1363235 -0.125 19.375 C-0.11497173 17.50521301 -0.10584562 15.63542095 -0.09765625 13.765625 C-0.07558012 9.17695891 -0.04104234 4.58853407 0 0 Z " fill="#FCE746" transform="translate(149,11)"/>
<path d="M0 0 C7.54290017 -0.4946164 13.058915 1.09382609 20 4 C20 5.65 20 7.3 20 9 C13.565 9.495 13.565 9.495 7 10 C7 9.34 7 8.68 7 8 C5.35 7.67 3.7 7.34 2 7 C1.34 4.69 0.68 2.38 0 0 Z " fill="#40A24F" transform="translate(115,76)"/>
<path d="M0 0 C-0.14183696 1.75032844 -0.28863429 3.50025534 -0.4375 5.25 C-0.51871094 6.22453125 -0.59992188 7.1990625 -0.68359375 8.203125 C-1 11 -1 11 -2 15 C-5.3 14.34 -8.6 13.68 -12 13 C-12.33 11.35 -12.66 9.7 -13 8 C-12.21625 7.5875 -11.4325 7.175 -10.625 6.75 C-7.88492228 4.92328152 -7.26664653 3.92303045 -6 1 C-4 0 -4 0 0 0 Z " fill="#CCDBE5" transform="translate(93,36)"/>
<path d="M0 0 C2 2 2 2 2.24050903 4.29055786 C2.23606781 5.24542084 2.23162659 6.20028381 2.22705078 7.18408203 C2.22689972 8.26505157 2.22674866 9.34602112 2.22659302 10.45974731 C2.21627045 11.63060883 2.20594788 12.80147034 2.1953125 14.0078125 C2.1924826 15.20356903 2.18965271 16.39932556 2.18673706 17.63131714 C2.17551305 21.46264519 2.15040431 25.29374222 2.125 29.125 C2.11497308 31.71744455 2.10584673 34.30989275 2.09765625 36.90234375 C2.07556646 43.26830842 2.04206706 49.63413771 2 56 C1.01 56 0.02 56 -1 56 C-0.67 37.52 -0.34 19.04 0 0 Z " fill="#916414" transform="translate(13,90)"/>
<path d="M0 0 C1.46373047 0.02707031 1.46373047 0.02707031 2.95703125 0.0546875 C3.69308594 0.07789062 4.42914063 0.10109375 5.1875 0.125 C5.1875 0.785 5.1875 1.445 5.1875 2.125 C8.1575 2.455 11.1275 2.785 14.1875 3.125 C14.1875 3.455 14.1875 3.785 14.1875 4.125 C8.2475 4.455 2.3075 4.785 -3.8125 5.125 C-3.8125 6.115 -3.8125 7.105 -3.8125 8.125 C-1.1725 8.125 1.4675 8.125 4.1875 8.125 C1.23552536 9.70029969 -1.67065922 10.79304755 -4.875 11.75 C-5.73222656 12.01039062 -6.58945313 12.27078125 -7.47265625 12.5390625 C-9.8125 13.125 -9.8125 13.125 -12.8125 13.125 C-8.0625 7.25 -8.0625 7.25 -5.8125 6.125 C-7.4625 5.795 -9.1125 5.465 -10.8125 5.125 C-10.8125 4.135 -10.8125 3.145 -10.8125 2.125 C-7.04027911 0.37336544 -4.145861 -0.09990027 0 0 Z " fill="#5AC652" transform="translate(88.8125,78.875)"/>
<path d="M0 0 C0.33 0 0.66 0 1 0 C1.95831259 7.07602529 2.05924338 13.90366066 1.87890625 21.03515625 C1.85529526 22.15442001 1.83168427 23.27368378 1.80735779 24.42686462 C1.73129984 27.97222442 1.64702915 31.51733309 1.5625 35.0625 C1.50922128 37.47850368 1.45648137 39.89451931 1.40429688 42.31054688 C1.27576384 48.20718376 1.14050267 54.10363683 1 60 C0.34 60 -0.32 60 -1 60 C-1 60.99 -1 61.98 -1 63 C2.63 63 6.26 63 10 63 C10 63.33 10 63.66 10 64 C5.05 64 0.1 64 -5 64 C-3.515 63.505 -3.515 63.505 -2 63 C-2.01160156 62.0821875 -2.02320313 61.164375 -2.03515625 60.21875 C-2.04417969 58.9915625 -2.05320312 57.764375 -2.0625 56.5 C-2.07410156 55.2934375 -2.08570313 54.086875 -2.09765625 52.84375 C-2 49 -2 49 -1.51367188 45.36914062 C-0.90458933 40.66447502 -0.77617109 35.98915628 -0.68359375 31.25 C-0.66281265 30.35128174 -0.64203156 29.45256348 -0.62062073 28.52661133 C-0.55576947 25.68447764 -0.49654304 22.84225967 -0.4375 20 C-0.39425335 18.06118956 -0.35063721 16.12238732 -0.30664062 14.18359375 C-0.20015513 9.45581329 -0.09871053 4.72794893 0 0 Z " fill="#AD771F" transform="translate(17,83)"/>
<path d="M0 0 C6 0 6 0 8.375 1.875 C10 4 10 4 10 6 C10.99 6.33 11.98 6.66 13 7 C13 7.33 13 7.66 13 8 C11.56465159 8.2226746 10.12654475 8.42761906 8.6875 8.625 C7.88699219 8.74101563 7.08648437 8.85703125 6.26171875 8.9765625 C4 9 4 9 1 7 C1.33 15.91 1.66 24.82 2 34 C1.34 34 0.68 34 0 34 C0 22.78 0 11.56 0 0 Z " fill="#C0D8DE" transform="translate(27,54)"/>
<path d="M0 0 C0.99 0.495 0.99 0.495 2 1 C2.99 0.67 3.98 0.34 5 0 C5 1.65 5 3.3 5 5 C5.66 5 6.32 5 7 5 C7 9.62 7 14.24 7 19 C6.67 18.34 6.34 17.68 6 17 C2.9254644 17.7763932 2.9254644 17.7763932 1 20 C-0.23839599 13.34362157 -0.09139136 6.7528064 0 0 Z " fill="#F1D337" transform="translate(137,58)"/>
<path d="M0 0 C0.33 0.66 0.66 1.32 1 2 C4.63376296 3.21125432 7.99098013 3.17614393 11.77612305 3.20532227 C12.96183899 3.22017166 12.96183899 3.22017166 14.17150879 3.23532104 C16.78488162 3.26691393 19.39827263 3.29168474 22.01171875 3.31640625 C23.82347588 3.33697769 25.63522823 3.35797421 27.44697571 3.37937927 C32.21611664 3.43458035 36.98530074 3.48399831 41.7545166 3.53222656 C46.62088871 3.5824559 51.4871981 3.63813449 56.35351562 3.69335938 C65.90229018 3.80091694 75.45111918 3.90236728 85 4 C85 4.33 85 4.66 85 5 C56.29 5 27.58 5 -2 5 C-1.34 3.35 -0.68 1.7 0 0 Z " fill="#F6E83D" transform="translate(19,140)"/>
<path d="M0 0 C0.99 1.485 0.99 1.485 2 3 C2.66 3.33 3.32 3.66 4 4 C3.67 16.54 3.34 29.08 3 42 C2.01 42.495 2.01 42.495 1 43 C0.37824568 28.66161788 -0.17991616 14.35331148 0 0 Z " fill="#A26918" transform="translate(12,13)"/>
<path d="M0 0 C0 4.29 0 8.58 0 13 C-0.99 13 -1.98 13 -3 13 C-3.66 14.32 -4.32 15.64 -5 17 C-4.01 17.33 -3.02 17.66 -2 18 C-3.98 18.99 -3.98 18.99 -6 20 C-7 19 -7 19 -7.09765625 16.05859375 C-7.08605469 14.86363281 -7.07445312 13.66867188 -7.0625 12.4375 C-7.05347656 11.23996094 -7.04445312 10.04242188 -7.03515625 8.80859375 C-7.02355469 7.88175781 -7.01195312 6.95492187 -7 6 C-6.34 5.67 -5.68 5.34 -5 5 C-5 3.68 -5 2.36 -5 1 C-3 0 -3 0 0 0 Z " fill="#E5BE2B" transform="translate(144,102)"/>
<path d="M0 0 C0.33 0 0.66 0 1 0 C0.98839844 0.68707031 0.97679687 1.37414063 0.96484375 2.08203125 C0.95582031 2.98308594 0.94679687 3.88414063 0.9375 4.8125 C0.92589844 5.70582031 0.91429687 6.59914063 0.90234375 7.51953125 C0.88990033 10.13413791 0.88990033 10.13413791 2 13 C1.67 13.33 1.34 13.66 1 14 C0.92728259 16.35313555 0.91629132 18.70833668 0.9375 21.0625 C0.94652344 22.35285156 0.95554688 23.64320312 0.96484375 24.97265625 C0.97644531 25.97167969 0.98804688 26.97070312 1 28 C0.01 28.33 -0.98 28.66 -2 29 C-3.30475618 26.39048764 -3.11301572 24.47298715 -3.09765625 21.5546875 C-3.09443359 20.47832031 -3.09121094 19.40195313 -3.08789062 18.29296875 C-3.07951172 17.16503906 -3.07113281 16.03710938 -3.0625 14.875 C-3.05798828 13.73933594 -3.05347656 12.60367188 -3.04882812 11.43359375 C-3.03701615 8.62234362 -3.02054507 5.8111977 -3 3 C-2.34 3 -1.68 3 -1 3 C-0.67 2.01 -0.34 1.02 0 0 Z " fill="#F6DA3B" transform="translate(152,47)"/>
<path d="M0 0 C1 1 2 2 3 3 C3.33 3 3.66 3 4 3 C4 9.27 4 15.54 4 22 C2.68 22 1.36 22 0 22 C-0.33 22.66 -0.66 23.32 -1 24 C-1.02698189 22.37509046 -1.04638757 20.75005367 -1.0625 19.125 C-1.07410156 18.22007813 -1.08570313 17.31515625 -1.09765625 16.3828125 C-1 14 -1 14 0 12 C-0.2475 10.9171875 -0.2475 10.9171875 -0.5 9.8125 C-1.11724532 6.34049508 -0.60920148 3.45214169 0 0 Z " fill="#EBC332" transform="translate(153,47)"/>
<path d="M0 0 C0.515625 0.165 1.03125 0.33 1.5625 0.5 C4.73363876 1.15049 7.77218334 1.0620734 11 1 C11 2.65 11 4.3 11 6 C13.31 6 15.62 6 18 6 C17.1875 8.4375 17.1875 8.4375 16 11 C15.01 11.33 14.02 11.66 13 12 C12.54625 11.4225 12.0925 10.845 11.625 10.25 C7.87321236 7.03418203 3.61188913 5.65464725 -1 4 C-0.67 2.68 -0.34 1.36 0 0 Z " fill="#C4C96D" transform="translate(46,29)"/>
<path d="M0 0 C0.33 0 0.66 0 1 0 C1 1.65 1 3.3 1 5 C1.99 5.33 2.98 5.66 4 6 C-0.43076923 8.09230769 -0.43076923 8.09230769 -3.3125 7.625 C-3.869375 7.41875 -4.42625 7.2125 -5 7 C-4.01 8.32 -3.02 9.64 -2 11 C-3.25 12.5625 -3.25 12.5625 -5 14 C-7.1875 13.6875 -7.1875 13.6875 -9 13 C-8.67 13.99 -8.34 14.98 -8 16 C-7.01 16.33 -6.02 16.66 -5 17 C-5 17.99 -5 18.98 -5 20 C-6.65 20.66 -8.3 21.32 -10 22 C-10.08126087 19.91731407 -10.13930839 17.83371342 -10.1875 15.75 C-10.22230469 14.58984375 -10.25710937 13.4296875 -10.29296875 12.234375 C-9.97652377 8.74082239 -9.50210434 7.40943381 -7 5 C-3.8125 4.25 -3.8125 4.25 -1 4 C-0.67 2.68 -0.34 1.36 0 0 Z " fill="#99D1D9" transform="translate(37,30)"/>
<path d="M0 0 C2.46800047 1.15173355 4.04783565 2.04783565 6 4 C5.9375 7.4375 5.9375 7.4375 5 11 C2.31851774 13.30905417 0.71136356 13.95257576 -2.8125 14.1875 C-3.8953125 14.0946875 -3.8953125 14.0946875 -5 14 C-4.525625 13.34 -4.05125 12.68 -3.5625 12 C-1.59169719 8.21605861 -1.42296036 5.22960359 -1 1 C-0.67 0.67 -0.34 0.34 0 0 Z " fill="#B9BEC9" transform="translate(73,58)"/>
<path d="M0 0 C1.98 0 3.96 0 6 0 C6 4.29 6 8.58 6 13 C5.34 11.68 4.68 10.36 4 9 C1.69 9 -0.62 9 -3 9 C-3 4.70892052 -2.70361469 3.24433763 0 0 Z " fill="#56B73A" transform="translate(129,85)"/>
<path d="M0 0 C0.66 0 1.32 0 2 0 C2 7.92 2 15.84 2 24 C1.67 24 1.34 24 1 24 C0.67 30.27 0.34 36.54 0 43 C-0.33 43 -0.66 43 -1 43 C-1.02507213 38.80485403 -1.04303239 34.60974994 -1.05493164 30.41455078 C-1.05990212 28.99299356 -1.06668084 27.57144128 -1.07543945 26.14990234 C-1.12801256 17.38565643 -0.92025062 8.72733736 0 0 Z " fill="#D09A28" transform="translate(8,37)"/>
<path d="M0 0 C2.97 0.495 2.97 0.495 6 1 C6 7.27 6 13.54 6 20 C5.67 20 5.34 20 5 20 C4.67 15.71 4.34 11.42 4 7 C3.34 7 2.68 7 2 7 C2.2784375 7.928125 2.2784375 7.928125 2.5625 8.875 C3 11 3 11 2 13 C1.34 13 0.68 13 0 13 C0 8.71 0 4.42 0 0 Z " fill="#F6E647" transform="translate(138,27)"/>
<path d="M0 0 C6.93 0 13.86 0 21 0 C21 0.66 21 1.32 21 2 C22.32 2 23.64 2 25 2 C25 2.66 25 3.32 25 4 C19.06 4 13.12 4 7 4 C7.99 3.67 8.98 3.34 10 3 C10 2.34 10 1.68 10 1 C6.7 1 3.4 1 0 1 C0 0.67 0 0.34 0 0 Z " fill="#6FD562" transform="translate(84,78)"/>
<path d="M0 0 C2 0 2 0 4.5625 2.375 C7 5 7 5 8 7 C7.5625 9.125 7.5625 9.125 7 11 C5.02 11 3.04 11 1 11 C0.67 11.99 0.34 12.98 0 14 C0 9.38 0 4.76 0 0 Z " fill="#BF8825" transform="translate(15,17)"/>
<path d="M0 0 C0.33 0 0.66 0 1 0 C1.12288464 10.3905794 0.83360594 20.63946908 0 31 C-0.33 31 -0.66 31 -1 31 C-1.33 22.42 -1.66 13.84 -2 5 C-2.66 4.67 -3.32 4.34 -4 4 C-3.01 3.67 -2.02 3.34 -1 3 C-0.67 2.01 -0.34 1.02 0 0 Z " fill="#B47720" transform="translate(147,13)"/>
<path d="M0 0 C4.29 0 8.58 0 13 0 C13 0.66 13 1.32 13 2 C15.64 2 18.28 2 21 2 C21 2.33 21 2.66 21 3 C14.4 3.33 7.8 3.66 1 4 C0.67 2.68 0.34 1.36 0 0 Z " fill="#5E4707" transform="translate(15,13)"/>
<path d="M0 0 C0.66 0.33 1.32 0.66 2 1 C1.67 1.33 1.34 1.66 1 2 C2.1446875 2.1546875 2.1446875 2.1546875 3.3125 2.3125 C6 3 6 3 9 6 C2.4 6 -4.2 6 -11 6 C-11 5.67 -11 5.34 -11 5 C-9.9275 4.731875 -8.855 4.46375 -7.75 4.1875 C-4.43491072 3.13772173 -2.56122354 2.25387672 0 0 Z " fill="#6BD54C" transform="translate(86,91)"/>
<path d="M0 0 C10.79713931 -0.56606361 10.79713931 -0.56606361 15 3 C18 6.4137931 18 6.4137931 18 9 C16.68 9 15.36 9 14 9 C14 8.01 14 7.02 14 6 C13.401875 5.71125 12.80375 5.4225 12.1875 5.125 C10 4 10 4 7 2 C4.67612053 1.60612212 2.34206251 1.26513915 0 1 C0 0.67 0 0.34 0 0 Z " fill="#E7BC0A" transform="translate(43,35)"/>
<path d="M0 0 C1.98 0 3.96 0 6 0 C6 3.96 6 7.92 6 12 C3.69 11.67 1.38 11.34 -1 11 C-1 10.34 -1 9.68 -1 9 C0.65 8.34 2.3 7.68 4 7 C4 6.01 4 5.02 4 4 C2.68 3.67 1.36 3.34 0 3 C0 2.01 0 1.02 0 0 Z " fill="#D5C344" transform="translate(28,43)"/>
<path d="M0 0 C0.99 1.485 0.99 1.485 2 3 C2.66 3.33 3.32 3.66 4 4 C3.67 7.96 3.34 11.92 3 16 C2.01 16.33 1.02 16.66 0 17 C0 11.39 0 5.78 0 0 Z " fill="#8D5716" transform="translate(12,13)"/>
<path d="M0 0 C0.66 0 1.32 0 2 0 C3.19287411 3.87684087 4 6.91621923 4 11 C2.02 11.33 0.04 11.66 -2 12 C-1.34 8.04 -0.68 4.08 0 0 Z " fill="#B5C7D2" transform="translate(94,38)"/>
<path d="M0 0 C0.66 0.33 1.32 0.66 2 1 C2 1.33 2 1.66 2 2 C4.64 2 7.28 2 10 2 C7.04802536 3.57529969 4.14184078 4.66804755 0.9375 5.625 C0.08027344 5.88539062 -0.77695313 6.14578125 -1.66015625 6.4140625 C-4 7 -4 7 -7 7 C-2.25 1.125 -2.25 1.125 0 0 Z " fill="#5DCA4D" transform="translate(83,85)"/>
<path d="M0 0 C2 2 2 2 2.23046875 3.91015625 C2.11111111 9.88888889 2.11111111 9.88888889 1 11 C0.80683287 13.02825491 0.61674212 15.05723921 0.4765625 17.08984375 C0 19 0 19 -3 21 C-2.67 17.37 -2.34 13.74 -2 10 C-1.34 10 -0.68 10 0 10 C0 6.7 0 3.4 0 0 Z " fill="#AFB4BF" transform="translate(126,45)"/>
<path d="M0 0 C3.3 0 6.6 0 10 0 C10.33 0.66 10.66 1.32 11 2 C8.54724859 3.2263757 6.9494219 3.11415314 4.2109375 3.09765625 C3.26992187 3.09443359 2.32890625 3.09121094 1.359375 3.08789062 C0.37453125 3.07951172 -0.6103125 3.07113281 -1.625 3.0625 C-2.61757812 3.05798828 -3.61015625 3.05347656 -4.6328125 3.04882812 C-7.0886016 3.03702145 -9.54427104 3.020554 -12 3 C-12 2.67 -12 2.34 -12 2 C-6.06 1.505 -6.06 1.505 0 1 C0 0.67 0 0.34 0 0 Z " fill="#5F4406" transform="translate(135,13)"/>
<path d="M0 0 C-2.99628539 2.99628539 -6.58493471 2.7249286 -10.625 3.125 C-11.42679687 3.21136719 -12.22859375 3.29773438 -13.0546875 3.38671875 C-15.03563635 3.59896327 -17.01772718 3.80049931 -19 4 C-19 3.01 -19 2.02 -19 1 C-12.65758005 -0.15316726 -6.43311296 -0.09507063 0 0 Z " fill="#82E244" transform="translate(133,105)"/>
<path d="M0 0 C-0.598125 0.226875 -1.19625 0.45375 -1.8125 0.6875 C-4.56351888 2.33811133 -5.52484637 4.1972081 -7 7 C-8.32 6.67 -9.64 6.34 -11 6 C-11 5.34 -11 4.68 -11 4 C-11.66 3.34 -12.32 2.68 -13 2 C-8.46298506 0.54815522 -4.81938524 -0.23509196 0 0 Z " fill="#67CC44" transform="translate(132,86)"/>
<path d="M0 0 C1.32 0.33 2.64 0.66 4 1 C3.25556641 1.54527344 3.25556641 1.54527344 2.49609375 2.1015625 C-1.70241392 5.20861751 -5.66415707 8.40142202 -9.45703125 11.99609375 C-9.96621094 12.32738281 -10.47539063 12.65867187 -11 13 C-11.99 12.67 -12.98 12.34 -14 12 C-9.84270438 8.23470744 -5.87850045 4.80883359 -1 2 C-0.67 1.34 -0.34 0.68 0 0 Z " fill="#6EDD58" transform="translate(80,84)"/>
<path d="M0 0 C0.99 0.66 1.98 1.32 3 2 C3 2.66 3 3.32 3 4 C3.99 4.33 4.98 4.66 6 5 C6 5.33 6 5.66 6 6 C1.545 6.495 1.545 6.495 -3 7 C-2.25 2.25 -2.25 2.25 0 0 Z " fill="#D1CD87" transform="translate(34,56)"/>
<path d="M0 0 C1.60785777 0.59427388 3.21117709 1.20083588 4.8125 1.8125 C6.15248047 2.31716797 6.15248047 2.31716797 7.51953125 2.83203125 C9.91924072 3.96197319 11.28423353 5.01062293 13 7 C11.02 7.66 9.04 8.32 7 9 C6.79375 8.401875 6.5875 7.80375 6.375 7.1875 C4.49073918 4.18981233 2.18867916 3.38638224 -1 2 C-0.67 1.34 -0.34 0.68 0 0 Z " fill="#61C555" transform="translate(109,81)"/>
<path d="M0 0 C0.99 0.33 1.98 0.66 3 1 C3.33 2.98 3.66 4.96 4 7 C1.525 8.485 1.525 8.485 -1 10 C-1 6.58900832 -0.50854594 3.36911686 0 0 Z " fill="#B2BAC4" transform="translate(129,56)"/>
<path d="M0 0 C1.52519276 0.08937803 3.04681929 0.24537146 4.5625 0.4375 C5.80193359 0.59025391 5.80193359 0.59025391 7.06640625 0.74609375 C7.70449219 0.82988281 8.34257813 0.91367187 9 1 C8.67 1.66 8.34 2.32 8 3 C7.34 3 6.68 3 6 3 C6 3.66 6 4.32 6 5 C4.02 5 2.04 5 0 5 C-0.5625 3.0625 -0.5625 3.0625 -1 1 C-0.67 0.67 -0.34 0.34 0 0 Z " fill="#B1CB89" transform="translate(46,29)"/>
<path d="M0 0 C1.32 1.32 2.64 2.64 4 4 C3.34 4.66 2.68 5.32 2 6 C1.63105418 8.03060659 1.63105418 8.03060659 1.5859375 10.3515625 C1.54726562 11.20234375 1.50859375 12.053125 1.46875 12.9296875 C1.4378125 13.81914062 1.406875 14.70859375 1.375 15.625 C1.33632812 16.5221875 1.29765625 17.419375 1.2578125 18.34375 C1.16340643 20.5622927 1.07783252 22.78082403 1 25 C0.67 25 0.34 25 0 25 C0 16.75 0 8.5 0 0 Z " fill="#D19C2A" transform="translate(8,9)"/>
<path d="M0 0 C0.66 0 1.32 0 2 0 C2.0272415 1.41655793 2.04650467 2.83327045 2.0625 4.25 C2.07410156 5.03890625 2.08570312 5.8278125 2.09765625 6.640625 C2.00385306 8.90691002 1.63241063 10.8288895 1 13 C-0.65 13 -2.3 13 -4 13 C-3.525625 12.34 -3.05125 11.68 -2.5625 11 C-0.58682146 7.2066972 -0.35972537 4.24475932 0 0 Z " fill="#C8CED8" transform="translate(72,59)"/>
<path d="M0 0 C1.32 0 2.64 0 4 0 C3.34 4.29 2.68 8.58 2 13 C1.34 13 0.68 13 0 13 C0 8.71 0 4.42 0 0 Z " fill="#FBEE4C" transform="translate(149,11)"/>
<path d="M0 0 C0 2 0 2 -1.609375 3.69140625 C-2.31578125 4.30886719 -3.0221875 4.92632812 -3.75 5.5625 C-4.44609375 6.18253906 -5.1421875 6.80257812 -5.859375 7.44140625 C-7.97982555 8.98531094 -9.43920573 9.57896851 -12 10 C-3.78082192 0 -3.78082192 0 0 0 Z " fill="#5FCE55" transform="translate(77,86)"/>
<path d="M0 0 C0.66 0 1.32 0 2 0 C1.67 1.65 1.34 3.3 1 5 C0.34 5 -0.32 5 -1 5 C-0.94779297 6.01320313 -0.94779297 6.01320313 -0.89453125 7.046875 C-0.85392578 8.38492188 -0.85392578 8.38492188 -0.8125 9.75 C-0.77769531 10.63171875 -0.74289063 11.5134375 -0.70703125 12.421875 C-1.05076316 15.44671583 -2.00227459 16.75583602 -4 19 C-3.71889511 16.20689395 -3.42563948 13.41601125 -3.125 10.625 C-3.04636719 9.8309375 -2.96773438 9.036875 -2.88671875 8.21875 C-2.2265625 2.2265625 -2.2265625 2.2265625 0 0 Z " fill="#C2C7D2" transform="translate(70,53)"/>
<path d="M0 0 C-6.59090909 5 -6.59090909 5 -11 5 C-11 4.01 -11 3.02 -11 2 C-7.36576791 -0.32590854 -4.22911669 -0.16265833 0 0 Z " fill="#57C45A" transform="translate(75,84)"/>
<path d="M0 0 C0.33 0.66 0.66 1.32 1 2 C4.16245541 3.0541518 6.86948218 3.31275672 10.1875 3.5625 C11.27417969 3.64628906 12.36085938 3.73007813 13.48046875 3.81640625 C14.72763672 3.90728516 14.72763672 3.90728516 16 4 C16 4.33 16 4.66 16 5 C10.06 5 4.12 5 -2 5 C-1.34 3.35 -0.68 1.7 0 0 Z " fill="#EDE13C" transform="translate(19,140)"/>
<path d="M0 0 C0.33 0.66 0.66 1.32 1 2 C-4.94 2.495 -4.94 2.495 -11 3 C-11 2.34 -11 1.68 -11 1 C-3.29268293 -1.51969981 -3.29268293 -1.51969981 0 0 Z " fill="#58C456" transform="translate(116,77)"/>
<path d="M0 0 C1.98 0.99 1.98 0.99 4 2 C4 2.66 4 3.32 4 4 C6.97 4 9.94 4 13 4 C13 4.33 13 4.66 13 5 C8.71 5 4.42 5 0 5 C0 3.35 0 1.7 0 0 Z " fill="#D3C43B" transform="translate(38,30)"/>
<path d="M0 0 C0.99 1.485 0.99 1.485 2 3 C2.99 3.33 3.98 3.66 5 4 C5 4.99 5 5.98 5 7 C3.35 7.66 1.7 8.32 0 9 C0 6.03 0 3.06 0 0 Z " fill="#A6D3D8" transform="translate(27,43)"/>
<path d="M0 0 C0.33 0.99 0.66 1.98 1 3 C0.01 2.67 -0.98 2.34 -2 2 C-1.34 1.34 -0.68 0.68 0 0 Z M-4 2 C-3.34 2.33 -2.68 2.66 -2 3 C-2.66 4.32 -3.32 5.64 -4 7 C-3.01 7.33 -2.02 7.66 -1 8 C-2.98 8.99 -2.98 8.99 -5 10 C-6.2077558 6.37673261 -5.54311128 5.35853631 -4 2 Z " fill="#EBC830" transform="translate(143,112)"/>
<path d="M0 0 C0 0.99 0 1.98 0 3 C-6.625 6.125 -6.625 6.125 -10 5 C-8.71186658 4.16121545 -7.41936744 3.32913217 -6.125 2.5 C-5.40570313 2.0359375 -4.68640625 1.571875 -3.9453125 1.09375 C-2 0 -2 0 0 0 Z " fill="#61CE61" transform="translate(64,87)"/>
<path d="M0 0 C2.64 0 5.28 0 8 0 C7.01 1.485 7.01 1.485 6 3 C2.375 3.1875 2.375 3.1875 -1 3 C-0.67 2.01 -0.34 1.02 0 0 Z " fill="#47B34C" transform="translate(83,79)"/>
<path d="M0 0 C3.3 0 6.6 0 10 0 C9.01 1.485 9.01 1.485 8 3 C4.375 3.6875 4.375 3.6875 1 4 C0.67 2.68 0.34 1.36 0 0 Z " fill="#563D03" transform="translate(15,13)"/>
<path d="M0 0 C0.99 0 1.98 0 3 0 C3 0.66 3 1.32 3 2 C3.66 2.33 4.32 2.66 5 3 C4.67 3.99 4.34 4.98 4 6 C2.68 6 1.36 6 0 6 C0 4.02 0 2.04 0 0 Z " fill="#EDCC33" transform="translate(139,44)"/>
<path d="M0 0 C0.33 0 0.66 0 1 0 C1 1.65 1 3.3 1 5 C1.99 5.33 2.98 5.66 4 6 C0.88228073 7.60339848 -0.39011689 8.18974141 -3.8125 7.125 C-4.534375 6.75375 -5.25625 6.3825 -6 6 C-6 5.67 -6 5.34 -6 5 C-4.35 4.67 -2.7 4.34 -1 4 C-0.67 2.68 -0.34 1.36 0 0 Z " fill="#9DCFC5" transform="translate(37,30)"/>
<path d="M0 0 C-1.30636994 2.61273988 -2.28409758 2.97236124 -5 4 C-8.25 4.125 -8.25 4.125 -11 4 C-7.54424257 0.54424257 -4.86390948 -0.27021719 0 0 Z " fill="#84E443" transform="translate(114,107)"/>
<path d="M0 0 C0.99 0.495 0.99 0.495 2 1 C3.26134052 6.72538916 3.1179633 12.28596536 2 18 C1.67 18 1.34 18 1 18 C0.10395632 11.95170514 -0.11269443 6.1105424 0 0 Z " fill="#B6C7D0" transform="translate(127,45)"/>
<path d="M0 0 C0.99 0.66 1.98 1.32 3 2 C-0.3 2 -3.6 2 -7 2 C-7 1.34 -7 0.68 -7 0 C-3.8195064 -1.06016453 -3.04021693 -1.04507457 0 0 Z " fill="#83E64C" transform="translate(92,95)"/>
<path d="M0 0 C3.41158256 1.13719419 4.11854601 2.04342944 6 5 C6 5.66 6 6.32 6 7 C4.68 7 3.36 7 2 7 C1.34 4.69 0.68 2.38 0 0 Z " fill="#E1A41E" transform="translate(55,37)"/>
<path d="M0 0 C0.33 0 0.66 0 1 0 C0.67 2.31 0.34 4.62 0 7 C-1.98 7.66 -3.96 8.32 -6 9 C-5.67 8.01 -5.34 7.02 -5 6 C-4.34 5.690625 -3.68 5.38125 -3 5.0625 C-0.79394438 4.17972859 -0.79394438 4.17972859 -0.25 1.875 C-0.1675 1.25625 -0.085 0.6375 0 0 Z " fill="#C0C7D0" transform="translate(78,62)"/>
<path d="M0 0 C0.33 0.66 0.66 1.32 1 2 C0.0625 4.625 0.0625 4.625 -1 7 C-1.66 7 -2.32 7 -3 7 C-3.1875 4.625 -3.1875 4.625 -3 2 C-2.01 1.34 -1.02 0.68 0 0 Z " fill="#E1CA40" transform="translate(41,60)"/>
<path d="M0 0 C1.32 0 2.64 0 4 0 C4 1.65 4 3.3 4 5 C2.68 4.34 1.36 3.68 0 3 C0 2.01 0 1.02 0 0 Z " fill="#E2B62F" transform="translate(3,49)"/>
</svg>
