<?xml version="1.0" encoding="UTF-8"?>
<svg version="1.1" xmlns="http://www.w3.org/2000/svg" width="1078" height="1078">
<path d="M0 0 C277.86 0 555.72 0 842 0 C842 277.86 842 555.72 842 842 C564.14 842 286.28 842 0 842 C0 564.14 0 286.28 0 0 Z " fill="#FDFDFD" transform="translate(118,118)"/>
<path d="M0 0 C277.86 0 555.72 0 842 0 C842 277.86 842 555.72 842 842 C564.14 842 286.28 842 0 842 C0 564.14 0 286.28 0 0 Z M195 66 C193.25363345 66.5511016 193.25363345 66.5511016 191.47198677 67.11333656 C166.45812046 75.45267559 148.1480791 95.30139741 136 118 C126.79886751 136.74304767 126.69926239 156.86168025 126.74603271 177.24732971 C126.74372407 179.45736781 126.74054485 181.66740513 126.73657823 183.87744087 C126.72827715 189.90800524 126.73233407 195.9385058 126.73855066 201.96907032 C126.7426259 207.81824305 126.73727111 213.66740257 126.73225593 219.51657346 C126.72175832 232.20760922 126.72262364 244.89862477 126.72841376 257.58966242 C126.73345547 268.69553392 126.73475334 279.80139802 126.73236847 290.90727043 C126.7322157 291.64547539 126.73206293 292.38368035 126.73190553 293.14425515 C126.7312828 296.14125976 126.73064599 299.13826437 126.729986 302.13526898 C126.72387555 330.2177739 126.72940305 358.300266 126.7401798 386.38276894 C126.74967115 411.30523499 126.74882005 436.22768061 126.73925781 461.15014648 C126.72853741 489.18455043 126.72430801 517.21894305 126.73048234 545.25334877 C126.73112373 548.24441429 126.73174941 551.23547981 126.73236847 554.22654533 C126.73252662 554.96296157 126.73268478 555.6993778 126.73284773 556.45810968 C126.73511798 567.55477951 126.73247091 578.65144112 126.72740936 589.74810982 C126.72168021 602.37092881 126.7231432 614.99372451 126.73397085 627.61654062 C126.73921596 634.05292675 126.74130406 640.48927147 126.73467255 646.92565727 C126.72868704 652.82437656 126.73203099 658.72301628 126.74262765 664.62172841 C126.74485066 666.74867715 126.74375028 668.8756327 126.73887607 671.00257701 C126.64953546 693.44206613 126.64953546 693.44206613 131.6875 715.1875 C131.94877686 715.93596191 132.21005371 716.68442383 132.47924805 717.45556641 C136.7584376 729.2894683 143.17171273 739.20378839 151 749 C151.75216797 749.98419922 151.75216797 749.98419922 152.51953125 750.98828125 C163.85620173 765.19995751 181.71414474 774.92649572 199 779.625 C200.15242188 779.94984375 200.15242188 779.94984375 201.328125 780.28125 C208.28432437 782.19775391 214.96086472 783.1244895 222.19855976 783.12863445 C222.89178877 783.13038749 223.58501778 783.13214053 224.29925373 783.13394669 C226.61548241 783.1385879 228.93164779 783.13614603 231.24787903 783.13371277 C232.92813581 783.13558171 234.60839217 783.13788275 236.28864783 783.14057809 C240.90132999 783.14669266 245.51399401 783.14656288 250.1266793 783.14538372 C255.10377333 783.14517961 260.08086156 783.15069955 265.05795288 783.15544128 C274.80940757 783.1637476 284.5608562 783.16649616 294.31231413 783.16705366 C302.24343966 783.16752903 310.1745632 783.16958485 318.1056881 783.17275429 C340.60619925 783.18156247 363.10670565 783.18617366 385.60721854 783.18542381 C387.42671006 783.18536388 387.42671006 783.18536388 389.28295898 783.18530273 C390.49744033 783.18526185 391.71192167 783.18522097 392.96320548 783.18517885 C412.62501527 783.18477281 432.28680586 783.19433135 451.9486101 783.2084411 C472.15128169 783.22282415 492.35394394 783.22971016 512.55662078 783.22884732 C523.89298321 783.22851592 535.22932555 783.23123801 546.56568336 783.24202538 C556.22280189 783.25115598 565.87989122 783.25328483 575.5370122 783.24651595 C580.45868381 783.24326304 585.38029951 783.24314927 590.30196571 783.2518692 C594.81954469 783.25979033 599.33702392 783.25824614 603.85460063 783.24958507 C605.47717781 783.24806228 607.09976264 783.24981936 608.72233079 783.25544515 C617.07664479 783.28246103 625.31072495 783.00811211 633.62232494 782.11736012 C634.34850115 782.04089226 635.07467735 781.96442441 635.82285889 781.88563935 C658.4023521 779.21673487 680.58307873 765.21478589 695 748 C708.32236283 730.66794731 717.10370665 710.56900262 717.13422108 688.46395302 C717.13657331 687.73426017 717.13892554 687.00456731 717.14134905 686.25276256 C717.14799535 683.81258703 717.14758216 681.37246528 717.14717102 678.93228149 C717.15047233 677.16311417 717.15419846 675.39394759 717.1583125 673.62478197 C717.16830951 668.76669663 717.17204556 663.90862364 717.17470181 659.05052948 C717.17861147 653.80979897 717.18818906 648.56907817 717.19691467 643.32835388 C717.21665613 630.67706298 717.22674047 618.02577131 717.23564246 605.37446886 C717.24002749 599.41638707 717.24539359 593.45830616 717.25063133 587.50022507 C717.26763815 567.69596097 717.28213385 547.89169742 717.28938007 528.08742714 C717.29128994 522.95086288 717.29321028 517.81429862 717.29516602 512.67773438 C717.29564976 511.40107994 717.2961335 510.12442551 717.2966319 508.80908458 C717.30493809 488.11299761 717.33028742 467.41696833 717.36274669 446.72090657 C717.39579999 425.47301717 717.4138271 404.22515712 717.41702431 382.97724187 C717.41919056 371.04701302 717.42795654 359.11686839 717.45348549 347.18666458 C717.47516847 337.03044152 717.48325456 326.87432316 717.47351871 316.71807958 C717.46896763 311.53620225 717.47090746 306.35454107 717.49028015 301.17269325 C717.50786594 296.42789365 717.50695137 291.68346865 717.49138286 286.93866532 C717.48899988 285.22337803 717.49336604 283.50806511 717.50521151 281.79281707 C717.70126439 269.33073434 717.70126439 269.33073434 713 258 C712.33936862 256.99167019 712.33936862 256.99167019 711.66539115 255.96297008 C708.0863117 250.91233964 703.83992153 246.55493439 699.46084595 242.20014954 C698.72224095 241.45771899 697.98363595 240.71528844 697.22264898 239.95036 C694.76333947 237.4807879 692.29700168 235.01836204 689.83056641 232.5559082 C688.05902622 230.7800179 686.28790351 229.00371105 684.51716614 227.22702026 C680.21590473 222.91377832 675.90995712 218.60526559 671.60152914 214.29918353 C668.09852049 210.79796207 664.59729127 207.29497062 661.09730148 203.79073143 C660.59808382 203.29091858 660.09886616 202.79110573 659.58452069 202.27614703 C658.57019759 201.26061212 657.55587565 200.24507604 656.54155485 199.22953882 C647.0432304 189.72035435 637.5384148 180.21767879 628.03160743 170.71697625 C619.34283525 162.03337534 610.66230965 153.34158388 601.98563047 144.64590106 C593.0640165 135.70489772 584.13684275 126.76948066 575.20365083 117.84004468 C570.19332075 112.83162452 565.18520219 107.82104058 560.18291092 102.80459023 C555.4801644 98.08866658 550.76962539 93.38066578 546.05376244 88.67785263 C544.32583577 86.95229215 542.60045652 85.22417636 540.87784386 83.49331093 C538.52315544 81.12815789 536.15937492 78.77247396 533.79312134 76.41889954 C532.77782205 75.39253882 532.77782205 75.39253882 531.74201167 74.34544355 C521.74704185 64.46254254 512.88525644 61.69434875 498.92141724 61.73257446 C497.09896447 61.72577779 497.09896447 61.72577779 495.23969448 61.71884382 C491.87918864 61.70839356 488.51889729 61.70687057 485.15839052 61.70923257 C481.52896381 61.70964156 477.89956874 61.69859338 474.27015686 61.68911743 C467.16200444 61.67252106 460.0538852 61.6670084 452.94571503 61.66589268 C447.16226994 61.66494106 441.37883577 61.66082509 435.59539413 61.65449142 C419.17694091 61.6368787 402.75851381 61.627652 386.34005107 61.62915237 C385.45536351 61.62923228 384.57067596 61.6293122 383.65917969 61.62939453 C382.77340366 61.62947629 381.88762763 61.62955805 380.9750099 61.62964229 C366.64090532 61.63045404 352.30690611 61.61134445 337.97283198 61.5831178 C323.23376906 61.55432432 308.49475739 61.54058122 293.75566566 61.54230535 C285.48941021 61.54296728 277.22326507 61.5375627 268.95703506 61.51594925 C261.91402898 61.49765165 254.87118313 61.49345955 247.82816346 61.5069681 C244.24117461 61.51345632 240.65449235 61.51376763 237.06753349 61.4962616 C222.5212862 61.42971574 208.95323965 61.53661859 195 66 Z " fill="#000000" transform="translate(118,118)"/>
<path d="M0 0 C0.82656215 -0.00199105 1.65312431 -0.0039821 2.5047338 -0.00603348 C3.40745528 -0.00312064 4.31017677 -0.0002078 5.24025345 0.00279331 C6.6848322 0.00151167 6.6848322 0.00151167 8.15859437 0.00020415 C11.39377961 -0.00144629 14.62891329 0.00406363 17.86409378 0.00952244 C20.17992527 0.00980443 22.49575685 0.00964634 24.81158829 0.00907993 C31.10661301 0.00879243 37.40161876 0.01468166 43.69663906 0.02165389 C50.27233345 0.02789516 56.84802824 0.02849184 63.42372513 0.0296793 C74.46325892 0.03227003 85.50278605 0.03868749 96.54231644 0.04760838 C107.91308431 0.05678737 119.28385029 0.06386583 130.65462112 0.06811619 C131.70596072 0.06851027 131.70596072 0.06851027 132.77853951 0.06891232 C136.2947137 0.07021736 139.81088791 0.07148107 143.32706213 0.07272422 C172.49728815 0.08309095 201.66750728 0.10077848 230.83772659 0.12304783 C230.84269181 1.39250028 230.84269181 1.39250028 230.84775734 2.68759823 C230.92906632 23.30381145 231.0211846 43.91995183 231.12525368 64.53606319 C231.17532202 74.50596052 231.22176553 84.47584986 231.25960159 94.44580173 C231.29259839 103.13814283 231.33247188 111.8304209 231.38051665 120.52269232 C231.40570533 125.12286664 231.42750895 129.72299956 231.44107056 134.32322407 C231.45396041 138.65866699 231.47608859 142.99396738 231.50510979 147.3293314 C231.51413169 148.91509676 231.51986311 150.50088503 231.52194023 152.08667469 C231.5253122 170.86950351 231.5253122 170.86950351 240.43928909 186.87695408 C247.19348014 193.02974456 254.58275736 196.23456081 263.69031143 196.28126621 C264.38947174 196.28619587 265.08863205 196.29112553 265.80897903 196.29620457 C268.16450628 196.31160869 270.52000656 196.31994906 272.87556839 196.32837009 C274.58804088 196.33808368 276.30051097 196.34822905 278.01297855 196.35877228 C282.60611929 196.38585489 287.19926961 196.40701404 291.79244614 196.42696476 C296.09975597 196.44656592 300.40702856 196.47148432 304.71431351 196.49597263 C317.31792322 196.5645191 329.92157829 196.62450852 342.52522659 196.68554783 C370.67835159 196.82992283 398.83147659 196.97429783 427.83772659 197.12304783 C427.83772659 259.16304783 427.83772659 321.20304783 427.83772659 385.12304783 C421.89772659 382.48304783 415.95772659 379.84304783 409.83772659 377.12304783 C405.72704232 375.93210192 401.99402206 374.85722557 397.83772659 374.12304783 C396.82839066 373.94257908 395.81905472 373.76211033 394.77913284 373.57617283 C368.17294943 370.51738465 342.00131175 374.93134629 320.27522659 391.43554783 C318.79140644 392.65909287 317.312752 393.88891462 315.83772659 395.12304783 C315.16072299 395.68162951 314.48371939 396.2402112 313.78620052 396.8157196 C305.76501967 403.72491237 298.94613972 411.65694397 291.96304321 419.58772373 C280.49769138 432.59468349 268.91054336 445.48250141 257.08362198 458.16136265 C256.59515412 458.68505371 256.10668627 459.20874478 255.60341636 459.74830527 C250.54813282 465.16481595 245.48013294 470.56924858 240.39994707 475.96240679 C237.79461229 478.72904928 235.19231129 481.49852767 232.59187698 484.26977634 C232.07459108 484.82094118 231.55730517 485.37210601 231.02434393 485.93997281 C223.79560474 493.65421625 216.73889565 501.49743372 209.79802535 509.47129838 C197.77867694 523.27853477 185.48047667 536.76393895 172.57600784 549.75195408 C172.07384965 550.25837187 171.57169145 550.76478966 171.05431634 551.28655344 C140.12505804 582.36530868 112.34683313 596.45684189 68.0374794 596.66111851 C46.65503813 596.56915076 25.22181291 595.03468822 4.03931046 592.15757847 C2.54795774 591.9671011 2.54795774 591.9671011 1.02647668 591.77277571 C-9.71162889 590.16031924 -19.16503468 585.53235191 -25.84977341 576.81054783 C-30.5977678 570.33304346 -31.60494983 563.55055607 -31.53979683 555.7800703 C-31.54415715 554.86717885 -31.54851747 553.95428739 -31.55300993 553.01373255 C-31.56395397 549.95623865 -31.55354793 546.89919685 -31.54322433 543.84170628 C-31.54668123 541.62690862 -31.55144601 539.41211268 -31.55740607 537.19732034 C-31.56994143 531.11200937 -31.56373403 525.02683936 -31.55444741 518.94152784 C-31.54836395 513.05243907 -31.55634916 507.16338038 -31.56388951 501.27429576 C-31.57968419 488.48595167 -31.57831846 475.69765255 -31.56965277 462.90930419 C-31.56210572 451.71675712 -31.56013617 440.52422653 -31.5637207 429.33167744 C-31.56394986 428.58921038 -31.56417901 427.84674332 -31.56441511 427.08177727 C-31.56534913 424.06782947 -31.56630433 421.05388168 -31.5672944 418.03993391 C-31.57647181 389.76527818 -31.56815071 361.49065108 -31.55200371 333.21599977 C-31.5377698 308.10036502 -31.53903827 282.98477592 -31.55338669 257.86914158 C-31.56945472 229.64917627 -31.57581801 201.42923627 -31.5665499 173.20926702 C-31.56558775 170.2001946 -31.56464923 167.19112218 -31.5637207 164.18204975 C-31.56348347 163.44114418 -31.56324624 162.7002386 -31.56300182 161.93688134 C-31.55959082 150.75325957 -31.56357765 139.56965611 -31.57115936 128.38603687 C-31.57973905 115.66693114 -31.57758871 102.9478774 -31.56131713 90.22877814 C-31.55343034 83.73849859 -31.55034987 77.24831167 -31.56026459 70.7580328 C-31.56920349 64.81667269 -31.5642916 58.87549108 -31.54833193 52.93414716 C-31.54498073 50.78483003 -31.5466858 48.63549783 -31.5539593 46.48619039 C-31.56309237 43.56314892 -31.55371394 40.64071744 -31.53979683 37.71770763 C-31.54682033 36.88473105 -31.55384383 36.05175446 -31.56108016 35.19353616 C-31.46944812 25.55314103 -28.90374892 17.167511 -22.16227341 10.12304783 C-15.75194907 4.48042701 -8.74516969 -0.0046616 0 0 Z " fill="#000000" transform="translate(342.1622734069824,244.87695217132568)"/>
<path d="M0 0 C19.74176859 16.9543573 34.54717075 39.27860571 37.3125 65.6875 C38.77429199 96.23431205 31.47069358 122.57422068 10.6640625 145.62109375 C-5.06752953 162.43354375 -27.83028919 174.78816728 -51.19580078 175.7956543 C-82.05017486 176.4385631 -107.1683698 169.62100999 -130.22265625 148.1328125 C-149.64058193 128.86875311 -158.86258738 104.97149508 -159 77.8125 C-158.98696739 54.43779001 -152.94388514 33.94173513 -137.6875 15.6875 C-137.02492188 14.86378906 -136.36234375 14.04007812 -135.6796875 13.19140625 C-120.60615047 -4.63541522 -98.61652514 -17.05966345 -75.38671875 -20.03125 C-48.32207381 -22.08896324 -21.74498139 -17.29852861 0 0 Z " fill="#FEFEFE" transform="translate(535.6875,495.3125)"/>
<path d="M0 0 C2.38671875 1.83227539 2.38671875 1.83227539 4.6875 3.97265625 C5.54730469 4.77195557 6.40710938 5.57125488 7.29296875 6.39477539 C12.42107056 11.33001839 17.43000052 16.37866879 22.42626953 21.44677734 C23.80301429 22.84149404 25.18270887 24.23329701 26.5625 25.625 C27.36816406 26.44226563 28.17382812 27.25953125 29.00390625 28.1015625 C30.85939748 30.05151016 30.85939748 30.05151016 33 31 C33.09295345 42.67487982 33.16389333 54.34967063 33.20724869 66.02484608 C33.22806412 71.44695482 33.25627086 76.86880913 33.30175781 82.29077148 C33.34543169 87.5298021 33.3691825 92.768589 33.37950897 98.0077877 C33.38686181 99.99994425 33.40121964 101.99208847 33.42292023 103.9841404 C33.57490071 118.52249847 33.08983376 129.82014829 22.515625 140.83203125 C15.67768183 146.72497917 8.3534745 149.15588847 -0.53593445 149.12025452 C-1.69746645 149.12153615 -1.69746645 149.12153615 -2.88246375 149.12284368 C-5.48506099 149.12449478 -8.08759421 149.11898314 -10.69018555 149.11352539 C-12.55267332 149.11324341 -14.41516121 149.11340146 -16.27764893 149.1139679 C-21.34136906 149.11425546 -26.40506563 149.10836534 -31.46878028 149.10139394 C-36.7578976 149.09515358 -42.04701543 149.09455606 -47.33613586 149.09336853 C-57.35521833 149.09025723 -67.37428992 149.08204655 -77.39336759 149.07201904 C-88.7982973 149.06085166 -100.20322752 149.05534587 -111.60816133 149.05032361 C-135.07211359 149.03986378 -158.53605619 149.02226822 -182 149 C-178.19278686 144.45721723 -174.26401841 140.11415977 -170.07551575 135.9216156 C-169.51053664 135.35225424 -168.94555754 134.78289289 -168.36345786 134.19627815 C-166.48919209 132.30876809 -164.61146068 130.42474699 -162.73364258 128.54077148 C-161.38098997 127.18020691 -160.02851669 125.81946402 -158.6762085 124.45855713 C-154.25273055 120.00899823 -149.82392342 115.56476411 -145.39453125 111.12109375 C-143.86493471 109.58613288 -142.33534477 108.05116542 -140.80576134 106.51619148 C-134.44173982 100.13056683 -128.07628539 93.74637628 -121.70709705 87.36590481 C-112.60186081 78.24442684 -103.50521687 69.11456956 -94.42037278 59.97277969 C-88.01788212 53.53153674 -81.6057865 47.09995561 -75.1865322 40.67541939 C-71.35873542 36.84397817 -67.53519382 33.00850968 -63.72187233 29.16265678 C-60.13358901 25.54419803 -56.5334918 21.93791798 -52.92422485 18.34039307 C-51.60698837 17.02337648 -50.29397051 15.70212384 -48.98569298 14.37620735 C-34.66317555 -0.12873338 -20.33873612 -9.67177941 0 0 Z " fill="#000000" transform="translate(737,686)"/>
<path d="M0 0 C7.8752999 6.75025706 7.8752999 6.75025706 11.37242126 10.24543762 C12.16456024 11.03475677 12.95669922 11.82407593 13.77284241 12.63731384 C15.03952003 13.90702782 15.03952003 13.90702782 16.33178711 15.20239258 C17.23989136 16.10874451 18.14799561 17.01509644 19.08361816 17.94891357 C21.55446293 20.41523209 24.02217377 22.88466344 26.48916316 25.35483766 C29.07546561 27.94368408 31.66422076 30.53007609 34.25257874 33.11686707 C38.59083876 37.45331328 42.92699774 41.791852 47.26196289 46.1315918 C52.27882217 51.15391279 57.29930153 56.17259345 62.32163614 61.18943864 C66.63780515 65.50107854 70.95203364 69.81465285 75.26462752 74.12986869 C77.838962 76.70576442 80.41397283 79.28097426 82.99073601 81.85444069 C85.85467656 84.71497183 88.71453625 87.57954847 91.57397461 90.44458008 C92.43259598 91.30117722 93.29121735 92.15777435 94.17585754 93.04032898 C94.94825775 93.81554901 95.72065796 94.59076904 96.51646423 95.38948059 C97.19318648 96.06657987 97.86990873 96.74367914 98.56713772 97.44129658 C100 99 100 99 100 100 C67 100 34 100 0 100 C0 67 0 34 0 0 Z " fill="#000000" transform="translate(639,276)"/>
<path d="M0 0 C7.21461929 5.23857521 13.14805606 11.44416818 16 20 C16.72295136 30.25558137 17.21477345 39.29931717 11 48 C10.278125 49.0725 9.55625 50.145 8.8125 51.25 C1.56971401 58.33183519 -6.7231617 61.96371487 -16.8125 62.375 C-26.91927657 62.13586083 -33.552285 58.34817656 -40.796875 51.4453125 C-47.9467876 43.5094166 -49.38846288 36.03901629 -49.26953125 25.60546875 C-48.56224582 16.1442448 -43.9902914 9.23824947 -37 3 C-34.11916396 1.00145046 -31.19695162 -0.5697848 -28 -2 C-26.576875 -2.6496875 -26.576875 -2.6496875 -25.125 -3.3125 C-16.27336568 -5.25985955 -8.00606155 -4.30917887 0 0 Z " fill="#020202" transform="translate(491,544)"/>
</svg>
